<?xml version="1.0" encoding="utf-8"?>
<!-- Generator: Adobe Illustrator 28.1.0, SVG Export Plug-In . SVG Version: 6.00 Build 0)  -->
<svg version="1.1" id="layer" xmlns="http://www.w3.org/2000/svg" xmlns:xlink="http://www.w3.org/1999/xlink" x="0px" y="0px"
	 viewBox="0 0 562 425" style="enable-background:new 0 0 562 425;" xml:space="preserve">
<style type="text/css">
	.st0{fill:none;}
	.st1{fill:#ffffff;}
</style>
<path class="st0" d="M393.5,145.3c-3.7,61.5-56.5,108.4-118.1,104.7c-61.5-3.7-108.4-56.5-104.7-118.1
	c3.7-61.5,56.5-108.4,118.1-104.7c60.8,3.7,107.3,55.3,104.8,115.8"/>
<path class="st1" d="M281.7,244.4l1.9-0.1l0.1,10.3h-1.9L281.7,244.4z M276.2,254.7l0.5-10.3l1.9,0.1l-0.4,10.3L276.2,254.7z
	 M286.6,244.4l1.9-0.1l0.6,10.3l-1.9,0.2L286.6,244.4z M270.9,254.3l0.8-10.3l2,0.2l-0.8,10.3L270.9,254.3z M291.6,244l1.9-0.2
	l1,10.3l-1.9,0.2L291.6,244z M265.5,253.7l1.4-10.3l1.9,0.2l-1.3,10.3L265.5,253.7z M296.5,243.4l1.9-0.3l1.5,10.3l-1.8,0.2
	L296.5,243.4z M260.1,252.8l1.8-10.2l2,0.3l-1.9,10.2L260.1,252.8z M301.3,242.6l1.9-0.4l2.1,10.2l-1.9,0.3L301.3,242.6z
	 M254.8,251.7l2.2-10.1l1.9,0.5l-2.2,10.1L254.8,251.7z M306.2,241.6l1.9-0.5l2.5,10l-1.9,0.5L306.2,241.6z M249.5,250.4l2.7-9.9
	l1.9,0.5l-2.8,9.9L249.5,250.4z M311.1,240.3l1.8-0.5l2.9,9.9l-1.8,0.5L311.1,240.3z M244.3,248.7l3.2-9.8l1.8,0.6l-3.2,9.9
	L244.3,248.7z M315.7,238.8l1.8-0.6l3.4,9.8l-1.8,0.6L315.7,238.8z M239.2,246.9l3.7-9.6l1.8,0.7l-3.7,9.6L239.2,246.9z
	 M320.4,237.1l1.8-0.8l3.9,9.6l-1.8,0.8L320.4,237.1z M234.2,244.8l4.1-9.5l1.8,0.8l-4.1,9.5L234.2,244.8z M325,235.2l1.8-0.8
	l4.3,9.3l-1.8,0.8L325,235.2z M229.3,242.4l4.5-9.3l1.8,0.8l-4.5,9.3L229.3,242.4z M329.4,233.1l1.8-0.9l4.7,9.2l-1.7,0.9
	L329.4,233.1z M224.4,239.9l5-9l1.7,0.9l-5,9.1L224.4,239.9z M333.8,230.7l1.7-1l5.2,9l-1.7,1L333.8,230.7z M219.8,237.2l5.4-8.8
	l1.7,1l-5.4,8.9L219.8,237.2z M338.1,228.2l1.6-1.1l5.7,8.6l-1.6,1.1L338.1,228.2z M215.2,234.2l5.8-8.5l1.6,1.1l-5.8,8.5
	L215.2,234.2z M342.2,225.4l1.6-1.1l6,8.5l-1.6,1.1L342.2,225.4z M210.8,231l6.3-8.3l1.5,1.1l-6.2,8.3L210.8,231z M346.3,222.5
	l1.5-1.2l6.4,8.2l-1.5,1.2L346.3,222.5z M206.5,227.6l6.5-8l1.5,1.2l-6.5,8L206.5,227.6z M350.1,219.3l1.5-1.2l6.7,7.8l-1.5,1.2
	L350.1,219.3z M202.5,224l6.9-7.7l1.5,1.3l-6.9,7.7L202.5,224z M353.8,216.1l1.5-1.3l7.1,7.5l-1.5,1.3L353.8,216.1z M198.5,220.3
	l7.3-7.4l1.4,1.4l-7.3,7.3L198.5,220.3z M357.4,212.7l1.4-1.4l7.4,7.2l-1.4,1.4L357.4,212.7z M194.8,216.3l7.7-7l1.3,1.5l-7.6,7
	L194.8,216.3z M360.7,209l1.3-1.5l7.7,6.8l-1.3,1.5L360.7,209z M191.2,212.1l8-6.7l1.2,1.5l-7.9,6.7L191.2,212.1z M363.9,205.3
	l1.2-1.5l8.1,6.4l-1.2,1.5L363.9,205.3z M187.9,207.9l8.3-6.2l1.1,1.5l-8.3,6.3L187.9,207.9z M367,201.4l1.1-1.6l8.4,6l-1.1,1.6
	L367,201.4z M184.7,203.3l8.5-5.8l1.1,1.6l-8.6,5.8L184.7,203.3z M369.9,197.2l1.1-1.6l8.6,5.8l-1.1,1.6L369.9,197.2z M181.7,198.8
	l8.8-5.4l1,1.7l-8.8,5.4L181.7,198.8z M372.6,193.1l1-1.7l8.9,5.3l-1,1.7L372.6,193.1z M179.1,194.2l9-5.1l0.9,1.7l-9,5.1
	L179.1,194.2z M375,188.8l0.9-1.8l9.1,4.9l-0.9,1.7L375,188.8z M176.5,189.3l9.3-4.7l0.8,1.7l-9.3,4.7L176.5,189.3z M377.3,184.4
	l0.8-1.8l9.3,4.4l-0.8,1.8L377.3,184.4z M174.2,184.4l9.4-4.3l0.8,1.8L175,186L174.2,184.4z M379.3,179.9l0.8-1.8l9.6,3.9l-0.7,1.8
	L379.3,179.9z M172.3,179.3l9.6-3.7l0.7,1.8l-9.6,3.7L172.3,179.3z M381.2,175.3l0.7-1.8l9.7,3.5l-0.6,1.8L381.2,175.3z
	 M170.4,174.2l9.8-3.2l0.6,1.8l-9.8,3.3L170.4,174.2z M382.8,170.6l0.6-1.8l9.9,3.1l-0.6,1.8L382.8,170.6z M168.9,168.9l9.9-2.8
	l0.5,1.8l-9.9,2.8L168.9,168.9z M384.2,165.8l0.5-1.9l10,2.6l-0.5,1.8L384.2,165.8z M167.6,163.6l10-2.3l0.5,1.8l-10.1,2.3
	L167.6,163.6z M385.4,161l0.4-1.9l10.1,2.1l-0.4,1.9L385.4,161z M166.4,158.3l10.2-1.9l0.4,1.9l-10.2,1.9L166.4,158.3z M386.4,156.2
	l0.3-1.9l10.3,1.6l-0.3,1.9L386.4,156.2z M165.7,153l10.2-1.5l0.3,1.9l-10.2,1.4L165.7,153z M387,151.2l0.2-2l10.3,1.2l-0.2,1.9
	L387,151.2z M165.1,147.5l10.3-0.8l0.2,1.9l-10.3,0.9L165.1,147.5z M387.6,146.3l0.2-1.9l10.3,0.7l-0.2,1.9L387.6,146.3z
	 M164.8,142.1l10.3-0.5l0.1,1.9l-10.3,0.5L164.8,142.1z M387.8,142.4l0.1-1.9l10.3,0.3l-0.1,2L387.8,142.4z M164.8,138.6v-1.9h10.3
	v1.9H164.8z M387.9,135.5l10.3-0.2v1.9l-10.3,0.2V135.5z M164.8,133.2l0.1-2l10.3,0.5l-0.1,1.9L164.8,133.2z M387.7,130.6l10.3-0.7
	l0.2,1.9l-10.3,0.7L387.7,130.6z M165.1,127.7l0.2-1.9l10.3,0.9l-0.2,1.9L165.1,127.7z M387.2,125.6l10.3-1.1l0.2,1.9l-10.3,1.1
	L387.2,125.6z M165.8,122.3l0.2-1.9l10.3,1.5l-0.2,1.9L165.8,122.3z M386.5,120.6l10.3-1.5l0.2,1.9l-10.3,1.5L386.5,120.6z
	 M166.7,117l0.4-1.8l10.2,2l-0.4,1.9L166.7,117z M385.6,115.8l10.1-2.1l0.4,1.9l-10.1,2.1L385.6,115.8z M167.7,111.7l0.5-1.9l10,2.4
	l-0.5,1.8L167.7,111.7z M384.4,111l10-2.6l0.5,1.8l-10,2.6L384.4,111z M169,106.4l0.5-1.9l9.9,2.8l-0.5,1.8L169,106.4z M383.1,106.2
	l9.9-3l0.6,1.8l-9.9,3.1L383.1,106.2z M170.7,101.2l0.6-1.8l9.8,3.4l-0.6,1.8L170.7,101.2z M381.5,101.5l9.8-3.4l0.6,1.8l-9.8,3.4
	L381.5,101.5z M172.6,96l0.7-1.8l9.6,3.8l-0.7,1.8L172.6,96z M379.6,96.8l9.6-3.8l0.8,1.8l-9.6,3.9L379.6,96.8z M174.6,90.9l0.8-1.8
	l9.4,4.4l-0.8,1.8L174.6,90.9z M377.6,92.4L387,88l0.8,1.8l-9.3,4.4L377.6,92.4z M176.9,86.1l0.8-1.7l9.3,4.7l-0.8,1.7L176.9,86.1z
	 M375.3,88l9.2-4.7l0.9,1.7l-9.2,4.8L375.3,88z M179.5,81.3l0.9-1.7l9,5.1l-1,1.7L179.5,81.3z M372.9,83.6l9-5.2l1,1.6l-8.9,5.2
	L372.9,83.6z M182.2,76.5l1-1.6l8.8,5.5l-1.1,1.6L182.2,76.5z M370.3,79.5l8.6-5.7l1.1,1.6l-8.6,5.6L370.3,79.5z M185.2,72l1.1-1.6
	l8.4,6l-1.1,1.6L185.2,72z M367.5,75.3l8.4-6l1.1,1.6l-8.4,6L367.5,75.3z M188.4,67.6l1.2-1.5l8.2,6.4l-1.2,1.5L188.4,67.6z
	 M364.5,71.4l8.1-6.4l1.2,1.5l-8.1,6.4L364.5,71.4z M191.8,63.3l1.2-1.5l7.9,6.7l-1.2,1.5L191.8,63.3z M361.3,67.6l7.8-6.7l1.3,1.5
	l-7.8,6.8L361.3,67.6z M195.4,59.2l1.3-1.5l7.5,7.1l-1.3,1.5L195.4,59.2z M357.9,64l7.5-7.1l1.4,1.4l-7.5,7.1L357.9,64z M199.1,55.4
	l1.4-1.4l7.3,7.3l-1.4,1.4L199.1,55.4z M354.4,60.6l7.1-7.5l1.4,1.4l-7.1,7.5L354.4,60.6z M203,51.6l1.5-1.3l6.9,7.7l-1.5,1.3
	L203,51.6z M350.6,57.2l6.7-7.8l1.5,1.2l-6.7,7.9L350.6,57.2z M207.2,48l1.5-1.2l6.5,8l-1.5,1.2L207.2,48z M346.8,54l6.5-8l1.5,1.2
	l-6.4,8L346.8,54z M211.4,44.6l1.6-1.1l6.1,8.3l-1.5,1.1L211.4,44.6z M342.8,51.1l6.1-8.3l1.5,1.1l-6.1,8.3L342.8,51.1z M215.9,41.5
	l1.6-1.1l5.7,8.6l-1.7,1.1L215.9,41.5z M338.7,48.3l5.7-8.6l1.6,1.1l-5.7,8.6L338.7,48.3z M220.5,38.5l1.6-1l5.3,8.9l-1.6,1
	L220.5,38.5z M334.5,45.7l5.2-8.9l1.7,0.9l-5.3,8.9L334.5,45.7z M225.1,35.8l1.7-0.9l4.9,9.1l-1.7,0.9L225.1,35.8z M330.1,43.4
	l4.8-9.2l1.7,0.9l-4.8,9.2L330.1,43.4z M230,33.2l1.8-0.8l4.4,9.3l-1.8,0.8L230,33.2z M325.6,41.2l4.4-9.3l1.8,0.8l-4.4,9.3
	L325.6,41.2z M234.9,30.9l1.8-0.8l4.1,9.5l-1.8,0.8L234.9,30.9z M321.1,39.3l3.9-9.6l1.8,0.8l-3.9,9.6L321.1,39.3z M239.9,29
	l1.8-0.7l3.6,9.7l-1.8,0.7L239.9,29z M316.4,37.5l3.4-9.7l1.8,0.6l-3.4,9.7L316.4,37.5z M245.1,27.1l1.8-0.6l3.1,9.9l-1.8,0.5
	L245.1,27.1z M311.8,36l3-9.9l1.8,0.5l-3,9.9L311.8,36z M250.3,25.5l1.8-0.5l2.7,10l-1.8,0.5L250.3,25.5z M306.9,34.7l2.6-9.9
	l1.8,0.5l-2.5,10L306.9,34.7z M255.6,24.2l1.9-0.5l2.1,10.1l-1.8,0.4L255.6,24.2z M302.1,33.6l2.1-10.1l1.9,0.4L304,34L302.1,33.6z
	 M260.9,23.1l1.9-0.3l1.8,10.2l-1.9,0.3L260.9,23.1z M297.2,32.9l1.6-10.2l1.9,0.2l-1.6,10.2L297.2,32.9z M266.3,22.3l1.9-0.2
	l1.3,10.3l-1.9,0.2L266.3,22.3z M292.2,32.2l1.1-10.3l1.9,0.2l-1.1,10.3L292.2,32.2z M271.7,21.8l2-0.2l0.8,10.3l-1.9,0.2
	L271.7,21.8z M287.3,31.8l0.7-10.3l1.9,0.2l-0.7,10.3L287.3,31.8z M277.2,21.4l1.9-0.1l0.2,10.3h-1.9L277.2,21.4z M282.4,31.6
	l0.2-10.4h2l-0.2,10.4H282.4z"/>
<path class="st1" d="M431.4,398.8c1.3,1.5,4.6,5.1,11.6,5.1c7.7,0,12.7-4.6,12.7-10.7c0-4.8-4.1-8.2-6.8-9.3v-0.2
	c2.5-1.1,5.8-4.5,5.8-8.8c0-6.3-5.2-10.3-11.7-10.3c-6.1,0-10.4,4.9-10.4,4.9c-0.4,0.5-0.5,1.1,0,1.5l2.1,1.8
	c0.5,0.5,1.1,0.3,1.5-0.2c1.1-1.2,3.1-3.1,6.5-3.1c3.4,0,6.4,2.4,6.4,6.1c0,3.3-2.7,6-7.9,6H438c-0.8,0-1.1,0.4-1.1,1.2v2.4
	c0,0.8,0.5,1.1,1.1,1.1h3.1c6,0,8.9,3.2,8.9,6.6c0,3.7-3.4,6-7,6c-4.2,0-7.3-3-7.7-3.4c-0.5-0.5-1-0.5-1.5-0.1l-2.2,2.1
	C431.1,397.9,431.1,398.5,431.4,398.8 M414.7,398.8c-6.1,0-8.2-6.4-7.7-11.1c0.3-1,3.2-4.3,7.7-4.3c4.2,0,7.5,3.4,7.5,7.7
	C422,395.3,418.8,398.8,414.7,398.8 M401.4,388.1c0,8.6,4.3,15.7,13.2,15.7c6.8,0,12.5-5.8,12.5-12.9c0-7.7-5.8-12.2-11.8-12.2
	c-3.7,0-7,1.8-7.4,2.1c1.8-6.9,10.8-11.6,13.4-12.4c1.1-0.3,1.3-0.9,1-1.6l-0.9-2.3c-0.2-0.6-0.8-0.8-1.5-0.7
	C414.8,365.9,401.4,372.4,401.4,388.1 M375.6,393.3c0-3,2.6-6.1,7.1-6.7c4.6,0.7,7.1,3.7,7.1,6.7c0,3.7-3.2,6.1-7.2,6.1
	C378.9,399.3,375.6,396.9,375.6,393.3 M382.7,381.1c-4.4-0.7-6.3-3-6.3-6c0-3.4,2.8-5.9,6.1-5.9c3.7,0,6.4,2.4,6.4,5.9
	C389,378,387,380.5,382.7,381.1 M369.7,393.1c0,6.1,5,10.8,12.9,10.8c8.2,0,13.1-4.7,13.1-10.8c0-4.8-4.2-8.2-6.8-9.4v-0.2
	c2.4-1.2,5.7-4.4,5.7-8.6c0-6.2-5.1-10.3-12-10.3c-6.7,0-11.9,4.1-11.9,10.3c0,4.4,3.4,7.5,5.8,8.7v0.2
	C374.4,384.6,369.7,388.2,369.7,393.1 M342.8,403.3h19.5c0.6,0,1.1-0.5,1.1-1v-2.4c0-0.6-0.5-1.1-1.1-1.1h-6.2v-32.6
	c0-0.5-0.5-1.1-1-1.1h-2.8l-8.3,7.5c-0.2,0.2-0.3,0.7-0.2,1.1l0.7,2c0.2,0.5,0.8,0.6,1.2,0.4l4.9-2.4v25.2h-7.8
	c-0.6,0-1.1,0.5-1.1,1.1v2.4C341.7,402.8,342.1,403.3,342.8,403.3 M291.6,383.7c0-8,6.6-14.7,14.5-14.7c8,0,14.6,6.7,14.6,14.7
	c0,8-6.6,14.5-14.6,14.5C298.2,398.2,291.6,391.7,291.6,383.7 M286,383.7c0,11.2,8.9,20.2,20.1,20.2c11.2,0,20.2-9,20.2-20.2
	c0-11.2-9-20.3-20.2-20.3C294.9,363.4,286,372.4,286,383.7 M245.3,402.2c0,0.6,0.5,1.1,1.1,1.1h3.5c0.6,0,1.1-0.5,1.1-1.1v-27.3h0.1
	l24.3,29h1.5c0.5,0,1.1-0.5,1.1-1v-37.8c0-0.5-0.5-1.1-1.1-1.1h-3.6c-0.6,0-1.1,0.5-1.1,1.1v26.6h-0.1l-24.3-28.2h-1.4
	c-0.5,0-1.1,0.5-1.1,1V402.2z M214.3,390l6.9-15.4h0.3l6.9,15.4H214.3z M203.9,403.3h3.6c0.7,0,1.1-0.5,1.3-0.8
	c1.1-2.6,2.3-5.1,3.4-7.7h18.4l3.4,7.7c0.2,0.5,0.6,0.8,1.3,0.8h3.5c0.8,0,1.3-0.7,0.9-1.5l-17.1-37.7c-0.2-0.4-0.6-0.6-0.9-0.6
	h-0.6c-0.2,0-0.8,0.2-0.9,0.6l-17.2,37.7C202.6,402.6,203,403.3,203.9,403.3 M177.4,402.2c0,0.6,0.5,1.1,1.1,1.1h20
	c0.6,0,1.1-0.5,1.1-1.1v-3.1c0-0.5-0.5-1.1-1.1-1.1h-15.2v-33.1c0-0.5-0.5-1.1-1.1-1.1h-3.7c-0.6,0-1.1,0.5-1.1,1.1L177.4,402.2
	L177.4,402.2z M160.6,402.2c0,0.6,0.5,1.1,1.1,1.1h3.7c0.5,0,1.1-0.5,1.1-1.1V365c0-0.5-0.5-1.1-1.1-1.1h-3.7
	c-0.5,0-1.1,0.5-1.1,1.1V402.2z M109.2,402.1c-0.2,0.8,0.3,1.3,1.1,1.3h3.6c0.5,0,0.9-0.4,1-0.8l4.1-25.1h0.2l10.2,25.9
	c0.1,0.3,0.5,0.6,0.9,0.6h1c0.5,0,0.8-0.3,0.9-0.6l10.1-25.9h0.2l4.1,25.1c0.2,0.4,0.6,0.8,1.1,0.8h3.6c0.8,0,1.2-0.5,1.1-1.3
	l-6.9-37.7c-0.1-0.5-0.5-0.8-1-0.8h-0.9c-0.4,0-0.8,0.2-1,0.6l-11.6,28.6h-0.2L119,364.1c-0.2-0.4-0.6-0.6-1-0.6h-0.8
	c-0.5,0-0.9,0.4-1.1,0.8L109.2,402.1z"/>
<path class="st1" d="M494.7,309.4c0-10.1,8.3-18.5,18.4-18.5s18.4,8.4,18.4,18.5s-8.3,18.4-18.4,18.4
	C503,327.8,494.7,319.5,494.7,309.4 M484.3,309.4c0,16,12.8,28.8,28.8,28.8c16,0,28.9-12.8,28.9-28.8c0-16.1-12.9-29-28.9-29
	C497,280.4,484.3,293.3,484.3,309.4 M428.4,309.4c0,16,12.9,28.8,28.9,28.8c7.2,0,14.1-2.5,19.5-7.8c0.6-0.5,0.8-1.6,0.1-2.1l-5-5.1
	c-0.5-0.5-1.3-0.6-2,0c-3.4,2.7-7.5,4.5-12.3,4.5c-10.3,0-18-8.5-18-18.5c0-10.1,7.7-18.7,17.9-18.7c4.5,0,9,1.8,12.3,4.7
	c0.6,0.6,1.5,0.6,2,0l4.9-5.1c0.6-0.6,0.6-1.6-0.1-2.2c-5.4-4.9-11.2-7.5-19.4-7.5C441.3,280.4,428.4,293.3,428.4,309.4
	 M407.3,335.9c0,0.8,0.8,1.5,1.5,1.5h7.5c0.8,0,1.5-0.7,1.5-1.5v-53.1c0-0.8-0.7-1.5-1.5-1.5h-7.5c-0.8,0-1.5,0.8-1.5,1.5V335.9z
	 M346.2,335.9c0,0.8,0.7,1.5,1.5,1.5h7.3c0.8,0,1.5-0.7,1.5-1.5v-34.5h0.1l33.5,36.8h1.9c0.8,0,1.5-0.6,1.5-1.5v-53.9
	c0-0.8-0.7-1.5-1.5-1.5h-7.4c-0.9,0-1.5,0.8-1.5,1.5v33.1h-0.1l-33.4-35.4h-2c-0.8,0-1.5,0.6-1.5,1.5L346.2,335.9L346.2,335.9z
	 M287,309.4c0,16,12.9,28.8,29,28.8c7.1,0,14-2.5,19.5-7.8c0.6-0.5,0.7-1.6,0.1-2.1l-5-5.1c-0.5-0.5-1.4-0.6-2,0
	c-3.4,2.7-7.5,4.5-12.3,4.5c-10.3,0-18-8.5-18-18.5c0-10.1,7.7-18.7,17.9-18.7c4.5,0,9,1.8,12.3,4.7c0.6,0.6,1.5,0.6,2,0l4.9-5.1
	c0.6-0.6,0.6-1.6-0.1-2.2c-5.4-4.9-11.3-7.5-19.4-7.5C300,280.4,287,293.3,287,309.4 M243.2,335.9c0,0.8,0.6,1.5,1.5,1.5h32.8
	c0.9,0,1.5-0.7,1.5-1.5v-6.6c0-0.8-0.6-1.5-1.5-1.5h-23.7v-14.1h19.8c0.8,0,1.5-0.6,1.5-1.5v-6.7c0-0.8-0.8-1.5-1.5-1.5h-19.8v-13.2
	h23.7c0.9,0,1.5-0.7,1.5-1.5v-6.5c0-0.8-0.6-1.5-1.5-1.5h-32.7c-0.8,0-1.5,0.8-1.5,1.5L243.2,335.9L243.2,335.9z M209.8,335.9
	c0,0.8,0.8,1.5,1.5,1.5h7.4c0.8,0,1.5-0.7,1.5-1.5v-45h12.3c0.9,0,1.5-0.7,1.5-1.5v-6.5c0-0.8-0.6-1.5-1.5-1.5h-35
	c-0.8,0-1.5,0.8-1.5,1.5v6.5c0,0.8,0.7,1.5,1.5,1.5h12.3L209.8,335.9L209.8,335.9z M175.3,335.9c0,0.8,0.7,1.5,1.5,1.5h7.5
	c0.8,0,1.5-0.7,1.5-1.5v-53.1c0-0.8-0.7-1.5-1.5-1.5h-7.5c-0.8,0-1.5,0.8-1.5,1.5V335.9z M132.5,335.9c0,0.8,0.6,1.5,1.5,1.5h29.4
	c0.8,0,1.5-0.7,1.5-1.5v-6.6c0-0.8-0.7-1.5-1.5-1.5H143v-45c0-0.8-0.7-1.5-1.5-1.5h-7.3c-0.8,0-1.5,0.8-1.5,1.5L132.5,335.9
	L132.5,335.9z M76.8,309.4c0-10.1,8.3-18.5,18.4-18.5s18.4,8.4,18.4,18.5s-8.3,18.4-18.4,18.4C85,327.8,76.8,319.5,76.8,309.4
	 M66.4,309.4c0,16,12.8,28.8,28.8,28.8c16,0,28.8-12.8,28.8-28.8c0-16.1-12.9-29-28.8-29C79.1,280.4,66.4,293.3,66.4,309.4
	 M32.4,307.2V291h9.3c4.5,0,8.3,3.4,8.3,7.8c0,4.7-3.7,8.3-8.3,8.3H32.4z M22,335.9c0,0.8,0.6,1.5,1.5,1.5h7.4
	c0.8,0,1.5-0.7,1.5-1.5V317h9.9c9.8,0,17.8-8.1,17.8-18.1c0-9.7-8-17.8-17.9-17.8H23.4c-0.8,0-1.5,0.8-1.5,1.5L22,335.9L22,335.9z"
	/>
<polygon class="st1" points="337.3,184.7 337.3,184.7 337.2,184.7 "/>
<path class="st1" d="M312.4,121.8l-4.6,1c-0.3,0.1-0.5,0.3-0.4,0.6c0.1,0.3,0.3,0.5,0.6,0.4l1.6-0.3l0.4,0.5
	c0.1,0.1,0.3,0.2,0.4,0.2c0.2,0,0.3-0.1,0.4-0.2c0.2-0.2,0.2-0.5,0.1-0.8l0,0l1.8-0.4c0.3-0.1,0.5-0.3,0.5-0.6
	C313.1,122,312.8,121.8,312.4,121.8"/>
<path class="st1" d="M370.6,189.3c-1.8-0.2-4.1-6.1-4-11.7c0-1.5,0.2-3,0.5-4.3c1.3-5.4,5.1-18.5,5.1-34.1c0-3.4-0.2-6.8-0.5-10.3
	c-1.2-10.3-2.6-17.9-4.8-23.4l0,0c1.1-1.5,2.1-3.4,2.1-5.1c0-3.4-2.8-8.6-8.6-8.6c-0.5,0-1.1,0.1-1.6,0.2l-3.6,1.1
	c-3-2.2-5.8-2.4-7.7-2.4c-0.5,0-0.8,0-1.1,0c-0.6,0-1-0.1-1.1-0.2c-0.1,0-1.2-0.5-2.8-0.5c-0.4,0-0.8,0.1-1.2,0.2h-0.1
	c-1.7-0.3-3.3-0.4-4.9-0.4c-1.7,0-3.2,0.1-4.8,0.3c-0.2-0.4-1.2-1.9-3.4-3.6v-0.7c-0.1-1.8-1.8-4.7-1.8-4.7
	c-4.5-7.6-11.5-10.3-12.3-10.7c0.2-0.9,0.5-2.6,0.5-3.4c0-0.2,0-0.2,0-0.4h-0.2h0.2c0-0.2,0.4-1.1,0.5-2c0,0,0-0.1,0-0.2
	c-0.1-1.3-1.5-3.8-2.2-5.5c-0.9-1.8-3.1-2.1-3.7-2.1c-2-1.9-4.9-2.1-6.4-2.1c-0.5,0-0.9,0-0.9,0c-0.2,0.1-3.7,0.8-4.6,1.5
	c-0.4,0.3-1.4,1.3-2.3,2.3c-1.1-0.6-2.2-0.9-3.2-0.9c-2.5,0-4.4,1.4-4.7,1.5c0-0.1-1.9,0.2-3.1,0.4c-1.4,0.2-2.5,0.8-5.3,4.1
	c-1.4,1.6-1.8,3.2-1.8,4.5c0,1.2,0.4,2.1,0.5,2.4c-1.2,0.4-2.3,1.2-2.9,1.8c-1,1-1.1,3.4-1.1,4.2c-0.2,0-0.3,0-0.4,0
	c-2.3,0.2-4.3,1.4-4.3,1.5c0,0.2-1.6,0.3-2,1.5c0,0.2,0.1,0.3,0.1,0.3c0.2,0.5,1,1.4,2.5,1.4h0.1c1.1,0.1,1.7-0.3,1.8-0.6
	c0.1,0,0.1,0,0.1-0.1c0.5,0.6,3.6,3.5,3.7,3.5c0.1,0.1,1.2,0.8,2.8,0.8c0.7,0,1.5-0.2,2.3-0.7c1.2-1,2.8-0.7,3.4-2.1
	c0.5-0.1,1.8-0.4,2.7-0.8c0.3-0.2,0.8-0.5,1.1-0.9l0,0c0.1-0.2,1.5-1.7,1.8-1.5v0.1c1.1,2.8,1.5,5.3,1.5,7.3c0,4-1.5,6.1-1.5,6.1
	c-0.2,0.3-1.1,2.4-1.7,3.7c-0.3-0.7-0.8-1.1-1.1-1.2c-0.2-0.6-0.6-1.1-0.9-1.3v-0.1c-0.2-1.9-2.1-2.1-1.8-2.1
	c-0.5-1.2-2.1-1.8-2.1-1.8c-0.7-1.1-2.7-1.3-2.7-1.4c0,0-0.1,0-0.2,0c-0.9,0-2.8,0.8-3.3,0.9c-0.2,0-0.5,0-0.8,0c-0.5,0-1,0-1.6,0.3
	c-0.2,0-0.4,0-0.6,0c-1,0-2.8,0.4-3.9,2.5c0,0-1.3,0.9-2.1,2.1c0,0.1-2.1,6.1-2.4,8.4c-0.3,2.4-0.2,1.7-0.3,2.3
	c-0.1,0.5-3.1,3.2-3.1,5.4c0,0.4,0.1,0.8,0.2,1.1c-1.8,1.3-7.3,6.1-7.3,16.3c0,1,0.1,2.1,0.2,3.2c-2.3-0.9-4.7-1.6-5.4-1.8
	c-0.4-0.5-1-0.7-1.3-0.8c-0.5-0.2-2.4-1-2.6-1.4c-0.7-0.8-2-1.1-2.8-1.1l0,0c-0.6-0.5-2.1-3.4-2.7-5.7c-0.8-2.6-1.5-5.8-1.5-9.2
	v-0.3l-0.3-0.2h0.3c0-3.7-2.4-8.4-3.1-10.1c-0.1-0.1-0.1-0.2-0.2-0.3l3.4-1.7c0,0.3-0.1,0.7-0.1,1c0,0.5,0.1,1.1,0.4,1.7
	c0,0,1.8,5,7.3,5.4c0.5,0,5.3,0.2,5.3,0.2c0.1,0,0.2,0,0.2,0c1.1,0.6,2.5,1.4,4.1,1.4c0.9,0,1.8-0.2,2.7-0.8c0,0,1.5-0.8,1.5-2.8
	c0-0.2,0-0.5-0.1-0.7c0.5-0.3,1.1-0.9,1.1-2c0-0.3-0.1-0.6-0.3-1l-0.4-0.7l1.8-0.3c0.1-0.2,1.5-0.3,1.7-1.6c0,0,0-0.2-0.1-0.3
	L262,97c0,0-2.4-0.5-2.9-0.5c-0.2,0-3.1-0.5-3.1-0.5l-1.1,0.2l-1.2-0.3l0,0c-0.5-1.4-2.8-3.1-3.6-3.7c0.4-0.2,0.7-0.5,0.9-0.8
	c0.2-0.8,0.2-2.1,0.2-2.7c0-0.2,0-0.3,0-0.3s0-0.2-0.1-0.2c1-1.5,1.1-3.1,1.1-4.1l2.4,1.3c0.1,0,1.8,1.1,3.1,1.1h0.1
	c1.1-0.1,1.5-1.1,1.4-1.4l0.4-0.5c0.5-0.2,0.8-0.5,0.9-0.8c0.3,0,0.9-0.1,1.4-0.3c0.2-0.2,0.5-0.4,0.6-0.6c0.2,0.2,0.5,0.3,0.8,0.3
	c0.6,0,1.1-0.6,1.2-1.3c0.4-1.8,2-5.6,2.3-6.5c0.2-0.5,0.3-0.7,0.5-0.8c0.4,0.2,0.8,0.2,1.2,0.2h0.3c1.8-0.2,2.1-1.5,2.1-1.8
	c0-0.1,0.4-1.3,0.4-2.5c0-1.3-0.5-3-2.1-3.7c-0.4-0.8-1.8-3.3-4.6-3.4c-0.2,0-0.4,0-0.5,0c-0.8-0.5-3.7-2.4-7-2.4
	c-0.4,0-0.8,0-1.2,0.1c0.1,0-1.8-0.4-3.7-0.4c-2.1,0-4.9,0.3-5.4,2.5c-1.2,0.2-5.1,0.8-5.5,3c-0.2,0-0.5,0.1-0.7,0.2
	c-0.6,0.3-1.8,1.2-1.8,2.6c-2.1-0.9-4.1-1.1-5.1-1.1c-0.1,0-0.2,0-0.2,0c-0.2,0-0.3,0-0.4,0c0,0-2.8-0.3-5.9-0.3
	c-1.6,0-3.3,0.1-4.6,0.4c-3.6,0.8-8.1,1.7-10.1,2.8c-2,1.2-3.7,4.7-5.1,5.4c-1.5,0.8-4,1.8-4.7,4.8c-0.1,0.3-0.2,0.8-0.2,1.2
	c-0.6,0.2-4.6,1.5-8.3,8.3c0,0-2.5,3.1-3.4,3.7c-0.5,0.5-0.6,1.1-0.6,1.9c0,1.4,0.5,2.9,1.1,3.7c0.2,0.2,0.8,0.8,1.5,1.5
	c-0.3,0.5-0.7,1.2-0.7,2.3c0,1.1,0.3,2.6,1.5,4.4c-1.1,0.8-3.7,3.4-4.7,11c0,0-0.5,9.4-1.7,13c-2.2,4.7-7.2,9.8-7.2,9.8
	c-0.1,0.1-0.7,0.8-0.7,1.8c0,0.6,0.2,1.4,1,2.1l3.7,2.6c0.1,0.1,0.2,0.1,0.3,0.1c0,0.2,0.1,0.3,0.1,0.4c0.5,0.9,1.7,1,3.1,1.5
	c1.3,0.4,2.4,0.6,3,0.7c0.2,0.2,0.5,0.3,0.9,0.3c2.2,0.1,3.2,0,4,0.9c0.5,0.5,0.9,1,1.5,1.3c0.2,0.1,0.8,0.2,1.7,0.3
	c-1.5,0.9-3.1,2.3-3.4,4.1c-0.1,0.9-0.5,2.5-0.5,4.1c0,2.4,0.9,5,4.6,5h0.1l0.4-0.1c0,0,2-1.1,3.2-2.1c0.2,0.9,0.5,3.4,1.7,4.8
	c0.1,0.1,0.1,0.2,0.2,0.2c-0.1,0.3-0.2,1.3-0.2,2.6c0,2.1,0.5,5.1,2.7,7.3c-0.3,0.3-0.9,1.1-1,2.1c-0.1,1.1-0.1,3.2-0.9,5.1
	c-0.9,1.9-2.6,6-2.7,7.6c0,0,0,0.2,0.1,0.3c0.1,0.6,0.8,1.8,1.3,3.1c0.3,0.6,0.7,1.2,0.9,1.6c0.2,0.2,0.2,0.4,0.3,0.5
	c0,0.1,0.1,0.1,0.1,0.2c0.3,0.7,0.7,1,1.1,1.3c0.3,0.1,1.1,0.2,1.5,0.2v-0.1l0.2-0.2v0.2h0.1l0,0c0.2,0,0.6,0.1,0.8,0.1
	c0.1,0,0.2,0,0.3-0.1c0.3-0.2,1.1,0,1.5-1.1c0-0.2,0-0.4,0-0.5l0,0c0.5-0.5,1.2-1.1,1.4-2.1c0.1-0.2-0.2-0.6-0.5-0.7
	c-0.3-0.2-1.1-0.4-1.5-0.5c-0.6-0.2-0.8-0.2-0.8-0.4c-0.2-0.4-0.3-0.6-0.3-0.8v-0.2c0.2-0.3,0.7-0.8,1.1-1.1
	c0.2-0.2,4.8-3.3,5.5-3.4h0.1l0,0c0.9,0.2,2.5,0.6,3,1.1c0.8,0.8,7.2,6.1,8.8,6.9c1.3,0.6,7,4.1,10,4.4c2.8,0.3,7.7,1.4,9.8,1.9
	c1.1,0.3,2.8,0.6,4.5,0.6c1.7,0,3.5-0.3,4.7-1.7c1.8-2.2,2.9-2.4,3.1-4.2c0.1-0.8,0.3-2.4,0.3-4.1c0-1.3-0.2-2.7-0.8-3.7
	c-1.2-2.1-2.4-3.4-2.4-3.4c-0.1-0.1-0.1-0.2-0.2-0.2v-0.1c0.1-0.5,0.2-0.9,0.2-1.3c0-2.2-1.2-3.7-1.3-4.1c-0.1-0.3-0.7-2.1-1.4-4.3
	c-0.4-1.2-0.8-2.5-1.2-3.8c0.3-0.3,1.6-1.4,2.9-2.8c0.5,0.5,8.8,9.4,12.3,10.2c0.1,0,0.2,0.1,0.3,0.1c0,0,3.7-0.1,7.3-1.3
	c2.8-0.9,4.6-2.6,6.4-2.5c0.5,0,1.1,0.1,1.8,0.5c0,0.1,0.1,0.2,0.1,0.2c0.2,0.4,0.5,0.7,0.8,1.1l0.5,7c0,0.1,0,0.1,0,0.1
	c0,0.4,0,1.7,1.1,2.1l-1,7l-17.2,4.1c-0.2,0-0.2,0.1-0.3,0.2c0,0-0.1,0-0.1,0.1c-0.1,0.2-0.2,0.2-0.1,0.5v4.3l0.4,0.5l17,5.7h0.3
	l31.1-9.1c0.2-0.1,0.4-0.3,0.4-0.5v-4.4c0-0.2-0.2-0.5-0.5-0.5l-17.8-3.7l-2.8,0.6l-2-12.9l0.1-0.1c0.8-1,1.6-2.6,1.6-4.7
	c0-0.5-0.1-1.2-0.2-1.8c-0.6-2.5-0.8-3.9-0.8-4.9c0-0.8,0.2-1.2,0.3-1.8c0.1-0.5,5.9-7.6,9.8-14.6c0,2.4-0.1,6.5-0.1,8.3
	c0,0.5,0,0.8,0,1c0,0.3,0.1,0.9,0.1,1.6c0,1.3-0.2,3.1-0.7,3.7c-1,1.5-2.1,3.7-2.1,5.1c0,0,0,0.2,0.1,0.4c0,0.3,0.1,0.9,0.1,1.5
	c0,0.7-0.1,1.3-0.2,1.5c-0.2,0.5-1.2,3.7-1.2,3.7c0,0.1-0.1,0.3-0.1,0.6c-0.1,0.8,0.3,2.8,2.5,3.1c1.1,0.2,2.4,0.2,3.5,0.2
	c1.6,0,3.1-0.2,4-0.5c1.2-0.7,2.3-1.8,2.4-3c0-0.2,0-0.4-0.2-0.6c-0.5-1.1-1.5-1.7-2.1-2.4c-0.5-0.6-1.1-1.9-1.1-2.7v-0.2
	c0-0.1,0.4-1.3,0.5-2.1v-0.1l0,0l0,0v-0.1c0-0.2-0.1-0.6-0.1-1.1c0-0.9,0.2-2.1,0.4-2.4c0.6-0.8,4.8-7.3,4.8-7.3
	c0.1-0.1,2.1-3.2,2.8-12.1v-0.1c2.3-0.2,4-0.2,4.7-0.2l-0.2,0.5l-2.1,4.4c0,0-3.5,6.7-4.1,8.4c-0.4,1-1.8,3.8-1.8,8
	c0,2,0.4,4.4,1.3,6.8l1.1,4.2c1.9,6.2,2.9,7.2,5.4,7.5h0.2c-0.2,0.8-0.5,1.6-0.6,1.9c-0.2,0.5-0.8,1.5-1,2.5c-0.2,0.5-0.2,1-0.2,1.5
	c0,0.2,0,0.3,0.1,0.5c0.2,1.5,0.2,3.2,1.8,3.5c0.2,0.1,0.5,0.1,0.7,0.1c0.9,0,1.9-0.2,2.3-0.2c0.5,0.2,1.7,0.6,2.5,0.6
	c0.4,0.1,0.8,0.1,1.3,0.1c0.5,0,1-0.1,1.5-0.3c0.5-0.4,1.8-0.8,2.4-1.3c0.5-0.5,2.1-1.6,2.2-3.1v-0.1c-0.2-1.5-2.6-4.7-2.6-4.9
	c0,0.1,0,0,0-0.2c2.3,0.5,9,0.7,16.1,1.1c2.3,0.2,2.5,0.1,4.6,0.2c0.3,0,0.7,0.1,1.1,0.1c5.3,0,15-1.1,15.1-1.1
	c0.2,0,0.5-0.2,0.5-0.5C371.1,189.6,370.8,189.4,370.6,189.3 M345,91.8C345,91.8,345,91.7,345,91.8c0.4-0.1,0.8-0.1,1.1-0.1h1.1
	c1.9,0,4.5,0.2,7.3,2.4l0.5,0.1l3.7-1.1c0.5-0.1,0.9-0.1,1.4-0.1c5,0,7.5,4.7,7.5,7.6c0.1,3-4.5,7.4-4.5,7.4l-4.7,3.9
	c-1.1,2.1-5.6,4.6-7.4,5.7c-10.8-3-13.8-7.4-13.8-11.8C337.2,99.6,343.5,93.2,345,91.8 M342.2,91.1c0.7,0,1.3,0.2,1.7,0.2
	c-2,2-7.7,8-7.7,14.3c0,4.8,3.4,9.6,13.5,12.5c-1.2,0.6-2.4,0.9-3.7,0.9c-0.7,0-1.3-0.1-2.1-0.2c-7.1-1.5-14-10.4-14.1-10.4
	c-0.1-1-0.2-1.9-0.5-2.7c0.1-0.1,0.2-0.2,0.2-0.4c0-0.1,3.6-11.2,9.9-13.7C340.5,91.2,341.4,91.1,342.2,91.1 M336,90.8
	c0.9,0,1.8,0.1,2.8,0.2c-6,2.8-9.2,10.9-10,13.6c-1.5-2.2-4-2.8-5.5-2.7c-0.8,0-1.4,0.1-1.5,0.1h-0.1c-0.5-0.1-1.1-0.1-1.4-0.2
	c-0.2,0-2.8-1.1-3.7-1.1c-0.1,0-0.8-0.2-1.5-0.5c-0.9-0.4-2-0.8-2.1-1c-0.4-0.2-0.7-0.2-1.1-0.2h-0.5c0.6-0.7,2.1-2.1,3.9-2.9
	C316.1,95.9,325.8,90.8,336,90.8 M321.9,116.6c-0.3-0.1-0.5,0.2-0.6,0.5l0,0c0,0-0.5,2.8-1.1,5c-0.3,0.7-0.5,1.1-0.5,1.1
	c-0.3,0.5-0.7,1.1-1,1.6c-2.1,2.8-3.7,3.4-4.7,3.4c-0.5,0-0.8-0.1-1-0.2l0.6-0.4c0.2-0.2,0.3-0.5,0.2-0.8s-0.5-0.4-0.8-0.2l-1.1,0.7
	c-0.1,0.1-0.1,0.1-0.2,0.2c-0.5-0.2-1.1-0.5-1.1-0.5l-0.6,0.1l-1.1,1.1c-0.1,0-0.1,0-0.2,0c-0.8,0.2-1.8-2.2-2.1-3.1
	c-0.5-1-1.5-1.4-2-1.5c-0.2,0-1.2-0.2-1.3-0.2c0-0.1-2.7-2.1-2.9-2.4c-1.2-1.5-1.5-3.6-1.5-3.6c-0.2-1-0.2-2-0.2-2.8
	c0-0.3,0-0.5,0-0.8c0.2-4.7,2.4-6.8,2.4-6.8l1.9-1.7c0,0,1.5-1.3,1.7-1.5c0.2-0.2,2-0.8,2.8-1.3c0.2-0.2,0.9-0.3,1.7-0.2
	c0.4,0,0.7,0,1,0h0.2c0,0,0.1,0,0.2,0c0.6,0,3.3,0.6,3.4,0.7c0.2,0.1,2.5,1.5,2.5,1.5s0.2,0.4,0.2,0.8c0,0.2,0,0.5-0.1,0.7
	c-0.3,0.8-2.1,4-2.8,4.7c-0.4,0.3-0.5,0.8-0.5,1.1c0,0.9,0.8,1.5,0.8,1.6c0,0,0.1,0.1,0.1,0.3c0,0.2-0.1,0.3-0.1,0.5
	c0,0.2-0.7,0.6-1,1.4c-0.2,0.4-0.2,0.8-0.2,1.2c0,0.6,0.1,1.4,0.3,2c0.2,0.5,0.7,0.6,1,0.6c0.8,0,2.1-0.7,2.3-0.8
	c0.2,0,0.2,0,0.3-0.1c0.8-0.2,2.1-0.4,2.6-1.4l0,0c0.3-0.2,1,0,1.7-0.5c0.6-0.5,1.4-1.8,1.6-2.1c0.4-0.5,0.8-1.2,0.9-1.3
	c0.3-0.3,0.5-0.8,0.5-1.2c0-0.2-0.1-0.4-0.2-0.6c0.1-0.1,0.2-0.2,0.3-0.2c0.4-0.4,0.5-0.8,0.5-1.1c0-0.4-0.1-0.7-0.2-1.1
	c-0.2-0.6-1.3-2.1-1.3-2.3c0-0.1,0.3-0.8,0.5-1.2l-0.3-0.2h0.3l0,0l0,0c-0.2-0.9-0.9-1.1-1.3-1.3c0.1-0.2,0.2-0.5,0.2-0.8
	c0.1-0.2,0.1-0.2,0.1-0.2v-0.1h0.5c2,0.1,5.4,0.5,5.7,5.9c0,0.5,0,0.8,0,1.1v0.5c0,0-1.5,4.8-4.7,6c-0.5,0.2-1.6,0.8-1.8,1
	c-0.1,0.1-0.1,0.2-0.2,0.2c0-0.2,0.1-0.5,0.1-0.5C322.5,116.9,322.2,116.6,321.9,116.6 M316.4,128.6c-1.1,1.6-2.1,3.2-2.8,3.8
	c-0.5,0.7-1.8,1.2-2.8,1.7c-0.8,0.3-1.6,0.5-1.6,0.5l-10.6,1.2L298,136c-0.3-1.1-1.2-4.1-1.6-6c0-0.2-0.1-0.3-0.1-0.5
	c-0.1-2,2.4-5.2,2.7-5.4c0.6-0.5,1-1.3,1.1-1.8c1,0.8,2.8,2.3,2.8,2.3c0.3,0.1,1.4,0.4,1.8,0.4c0,0,0.8,0.2,1,0.8
	c0.4,0.5,0.9,3.5,3.1,3.7c0.2,0,0.3-0.1,0.5-0.1l0.3-0.2l1-0.9c0.5,0.2,1.5,0.7,1.8,0.8c0.2,0.1,0.8,0.4,1.6,0.4
	C314.7,129.2,315.5,129,316.4,128.6 M297.5,110.4v-0.2c0-0.2-0.1-0.4-0.1-0.5s0-0.2,0-0.2c1-0.8,0.8-2.1,1.5-2.9
	c0.2-0.5,0.5-0.7,1.1-0.8c2.5-0.7,1.9-2.9,2.8-2.8c1.5-0.5,3-1.5,3.3-1.6l0,0v0.1v-0.1l0.1,0.1c0.8-0.1,2.8-0.8,3.1-0.9
	c0.2-0.1,0.9-0.2,1.5-0.2c0.5-0.1,0.8-0.1,1.1-0.1c0.2,0,0.2,0,0.3,0h0.2c0.4,0.2,1.4,0.7,2.4,1.1c0.7,0.3,1.3,0.5,1.8,0.5
	c0.5,0,3.1,1.1,3.7,1.2c0.2,0,0.7,0,1.1,0.2c0.1,0,0.2,0.1,0.3,0.1l0,0c-0.1,0.2-0.3,0.5-0.3,1c-0.1,0.2,0.2,0.6,0.4,0.7
	c0.2,0.1,0.5,0.2,0.7,0.4c0.2,0.1,0.2,0.2,0.3,0.2l0,0c0,0-0.5,0.5-0.5,1.2c0,0,0,0.2,0.1,0.3c0.2,0.6,1.1,2,1.3,2.4
	c0.1,0.2,0.2,0.5,0.2,0.7c0,0.2-0.1,0.3-0.1,0.3c-0.2,0.2-0.6,0.3-0.8,1.1c0,0.2,0.2,0.4,0.2,0.5v0.1c0,0-0.2,0.4-0.2,0.5
	c-0.4,0.4-0.8,1.1-1,1.4c-0.3,0.4-1.2,1.8-1.5,1.9c0,0.2-1.4-0.2-2,1c0,0,0,0-0.2,0.1c-0.3,0.2-1.2,0.5-1.5,0.5h-0.1h-0.1h-0.1
	c-0.7,0.2-1.8,0.8-2.2,0.7v0.1c-0.2-0.4-0.2-1-0.2-1.5c0-0.4,0.1-0.8,0.1-0.9c0.1-0.3,0.7-0.7,1-1.4c0.1-0.2,0.2-0.5,0.2-0.8
	c0-0.4-0.1-0.7-0.3-1c-0.2-0.2-0.6-0.7-0.5-0.9c0-0.2,0-0.2,0.2-0.4c1.1-1.1,2.7-4.2,3.1-5.2c0.2-0.3,0.2-0.7,0.2-1
	c0-0.7-0.2-1.1-0.5-1.5c-0.5-0.5-2.4-1.5-3-1.8c-0.5-0.2-3-0.7-3.9-0.8h-0.1h-0.1h-0.2c-0.2,0-0.6,0-1,0c-0.8,0-1.6,0-2.2,0.5
	c-0.6,0.4-2.3,1-2.8,1.3c-0.5,0.3-1.8,1.6-1.8,1.6l-1.9,1.7c-0.1,0.1-2.3,2.2-2.7,6.7c-0.1-0.1-0.2-0.3-0.2-0.5v-0.1
	c0.1-0.3,0.1-0.5,0.1-0.5C297.8,111.3,297.6,110.8,297.5,110.4 M325,81.4c0,0,1.7,3,1.7,4.2c-1.2-0.8-2.5-1.5-4.1-2.1
	c-0.3-0.1-0.6,0-0.8,0.3c-0.1,0.3,0,0.6,0.3,0.8c1.7,0.7,3.3,1.6,4.5,2.5c1.8,1.3,2.8,2.5,3.3,3.1c-7.1,1.1-13,4-14.6,4.7
	c-5-3.6-5.5-7-5.5-8.6c0-0.5,0.1-0.7,0.1-0.7c0.2-0.3,0.5-0.5,0.7-0.8c0.5-0.6,0.5-1.5,0.5-2.1c0-0.8-0.2-1.7-0.2-1.9l0,0
	c0-0.1,0.2-0.8,0.7-1.1c0.9-0.9,0.7-2.7,0.8-3.1c-0.1,0,0.4-0.4,0.9-0.8c0.2-0.3,0.2-0.5,0.2-0.9c0-0.9-0.4-2.3-0.5-2.7
	c0-0.1,0-0.1,0-0.1c0-0.3,0.1-0.5,0.2-0.8C314.3,71.7,320.8,74.4,325,81.4 M294.9,59.4c0.1,0,0.2-0.2,0.2-0.2v-0.1
	c0.9-1,2-2.1,2.3-2.4c0.2-0.2,4-1.2,4.1-1.2c0.1,0,0.3-0.1,0.7-0.1c1.4,0,4.1,0.2,5.7,1.9l0.3,0.2c0.1,0,2.6,0.2,3.1,1.5
	c0.8,1.7,2.1,4.4,2.1,5.1c0,0,0,0,0,0.2c-0.1,0.5-0.5,1.2-0.6,2.1c0,0,0,0.1,0,0.2v0.1c0,0.8-0.2,2.9-0.4,3.4
	c-0.1,0.2-0.1,0.2-0.2,0.3c-0.2,0.5-0.4,1-0.4,1.5c0,0,0,0.2,0.1,0.4c0.1,0.5,0.5,1.8,0.5,2.5c0,0.2-0.1,0.2-0.1,0.2
	c-0.2,0.4-0.9,0.6-1.1,1.5c0.1,0.4-0.2,2.3-0.4,2.3c-0.7,0.5-1,1.3-1.1,1.8v0.1c0,0.4,0.2,1.1,0.2,2c0,0.6-0.1,1.2-0.3,1.5
	c-0.2,0.2-0.4,0.5-0.5,0.5c-0.2,0-0.7,0-1.1,0.4l-0.6,0.4l-0.2,0.3c0,0-0.2,0.6-0.3,1.2c-0.1,0.2-0.1,0.5-0.2,0.6
	c-0.3-0.4-0.6-0.9-0.8-1.2l1.1-3.8l0.5-5.1v-0.2l3.9-6.2c0.1-0.3,0.1-0.4,0.1-0.4c-0.1-0.9-0.3-2.8-1.1-3.5
	c-0.4-0.3-1.8-2.1-1.8-2.2c-0.1-0.6-0.5-2.4-0.5-2.4c-0.1-0.2-0.2-0.4-0.3-0.4c-0.2-0.1-0.4,0-0.5,0.1c0,0-2.9,2.4-3.4,2.7
	c0,0-0.3,0.1-0.6,0.1c-0.8,0-2-0.2-2.4-0.2h-0.1c-0.8,0.1-2.1,0.3-2.6,1.3c-0.3,0.5-1.5,2.7-1.7,3c-0.5,0.8-0.8,2.7-0.8,3.9
	c0,0.4-0.2,0.7-0.5,1.1c-0.2,0.4-0.5,0.7-0.7,1.1c-0.1,0.2-0.2,0.5-0.2,0.8c0,0.7,0.2,1.2,0.4,2.1c0,0.2,0,0.5,0,0.8
	c0,1-0.2,2.2-0.2,2.6c0,0-0.1,0-0.2,0.1c-0.2,0.1-0.4,0.1-0.5,0.1l0,0c0,0-0.1,0-0.2,0c-0.2,0-0.5,0.1-0.7,0.2
	c0.1-0.3,0.2-0.6,0.2-0.8c0-0.1,0-0.2,0-0.2c-0.1-0.8-1.1-2.8-1.2-3.5c-0.2-0.6-0.9-6-0.9-7.2v-0.1c0-1,1.2-4.4,1.4-5.1
	c0.1-0.5,1-3.1,1.5-4.1C294.1,60.4,294.5,59.9,294.9,59.4 M305.1,73.5c0,0,0.3,0.2,0.7,0.4l-0.1,0.3c-0.1,0.3,0.1,0.6,0.4,0.7
	c0.3,0.1,0.6-0.1,0.7-0.4v-0.2c0.4,0.2,0.8,0.2,1.3,0.3l-1.5,2.4c0,0.1-0.1,0.1-0.1,0.1c-2.7,2.1-6,2.1-6.7,2.1h-0.2
	c-1.8-0.4-3.2-5-3.2-5s0-0.1-0.1-0.1c0.2-0.3,0.3-0.7,0.3-1.1c0-0.8,0.5-3.1,0.5-3.2c0.3-0.5,1.5-2.4,1.8-3.2c0-0.3,1.1-0.7,1.6-0.7
	c0.4,0,1.6,0.2,2.5,0.2c0.4,0,0.8,0,1.1-0.2c0.5-0.3,2-1.5,2.9-2.2c0.1,0.5,0.3,1.3,0.3,1.5c0.2,1,1.5,2.3,2.1,2.9
	c0.2,0,0.8,2.2,0.7,2.6v0.2l-1.7,2.7h-0.1c-1.5-0.1-3.1-1-3.1-1c-0.2-0.2-0.6-0.1-0.8,0.2C304.7,73,304.8,73.3,305.1,73.5
	 M282.1,81.4c0.1,0.6-1.2,0.5-3.1,1.7c-0.5,0.4-1.1,0.5-1.7,0.5c-0.6,0-1.1-0.2-1.5-0.3c-0.4-0.2-0.6-0.3-0.6-0.3l0,0
	c0,0-3.4-3.2-3.4-3.4c-0.2-0.3-0.5-0.5-0.8-0.5c-0.4,0-0.7,0.2-0.9,0.5c-0.1,0.1-0.2,0.2-0.2,0.2v-0.1c-0.1,0.1-0.4,0.1-0.8,0.1H269
	c-0.8,0-1.1-0.3-1.4-0.6c0.4-0.2,1.2-0.6,1.2-0.6c0.1-0.1,2.1-1.2,4-1.3c0.3,0,0.6-0.1,0.9-0.1c0.5-0.1,0.9-0.1,1.4-0.1
	c0.7,0,1.2,0.2,2.1,0.6l1.9,1.1c0,0,0,0,0.1,0.1c0.3,0.5,0.6,1.1,0.6,1.1c0.2,0.3,0.5,0.4,0.8,0.2c0.2-0.2,0.4-0.5,0.2-0.8
	c0,0-0.5-0.8-0.8-1.4c-0.2-0.4-0.5-0.7-0.5-0.7c-0.1-0.2-0.1-0.2-0.1-0.2c0-0.2,0-0.2,0.2-0.3h0.1c0.1,0,0.2,0,0.2,0
	c0.1,0.1,0.2,0.1,0.2,0.1c0.1,0,0.5,0.6,1.3,1.2c0.8,0.7,0.2-0.5,0.9,2.2c0.1,0.4,0.1,0.6,0.1,0.8L282.1,81.4L282.1,81.4z
	 M286.1,79.5c-0.2,0.3-0.5,0.5-0.8,0.7c-0.5,0.2-1.4,0.5-2.1,0.6c0-0.2-0.1-0.5-0.2-0.8c-0.5-2.3-0.7-2.4-1.3-2.8
	c-0.7-0.5-1.1-1-1.2-1.2c-0.2-0.2-0.5-0.3-1.1-0.3c-0.3,0-0.7,0.1-0.9,0.5c-0.2,0.3-0.3,0.6-0.3,0.9v0.1l-0.6-0.4
	c-0.9-0.6-1.8-0.8-2.7-0.8c-0.3,0-0.5,0-0.8,0.1c0.1-0.9,0.3-3,0.7-3.2c0.6-0.5,1.8-1.5,2.9-1.6c0.2,0,0.3-0.1,0.5-0.1
	c0.2,0,0.5,0.1,0.7,0.1c1.6,0.7,6.2,2.8,7.2,5.2c0.3,0.8,0.5,1.3,0.5,1.8C286.4,78.8,286.3,79.2,286.1,79.5 M289.7,92.7
	c0.1-0.1,1.6-2.4,1.6-6.7c0-1.9-0.3-4.1-1.2-6.7v-0.1l-1.6-6.4c-0.1-0.3-0.3-0.5-0.7-0.4c-0.3,0.1-0.5,0.4-0.4,0.7l1.1,4.4
	c-0.5,0.1-0.8,0.3-1.1,0.5c0-0.6-0.2-1.2-0.5-2c-1.4-3.1-6.1-5.1-7.7-5.8c-0.4-0.2-0.7-0.2-1.1-0.2H278c0-0.1,0-0.1-0.1-0.2l0,0
	c0,0-0.5-0.8-0.5-2.1c0-1.1,0.3-2.4,1.5-3.7c2.8-3.4,3.6-3.7,4.6-3.7c1.2-0.2,3.3-0.5,3.3-0.5c0.2-0.1,2.1-1.4,4.3-1.3
	c0.8,0,1.6,0.2,2.5,0.6c-0.3,0.4-0.6,0.8-0.8,1c-0.7,1.2-1.5,3.7-1.7,4.4c-0.1,0.5-1.4,3.9-1.5,5.3l0,0c0,1.4,0.8,6.7,1.1,7.6
	c0.2,0.8,1.2,3,1.1,3.2v0.1c-0.1,0.3-0.3,1.8-0.3,1.8c-0.1,0.2,0.1,0.5,0.2,0.5c0.2,0.2,0.4,0.2,0.6,0.1c0,0,0.2-0.2,0.6-0.4
	c0.2-0.1,0.3-0.2,0.5-0.2c0.2-0.1,0.2,0,0.2,0h0.1h0.1c0.3-0.1,1.3,0.1,1.7-1c0.1-0.5,0.3-1.8,0.3-2.8c0-0.3,0-0.7-0.1-1
	c-0.2-0.9-0.3-1.5-0.3-1.9c0-0.2,0-0.2,0.1-0.4c0-0.1,0.1-0.2,0.2-0.2c0.5,1.4,1.7,4.3,4,5h0.2c0.6,0,3.7-0.1,6.5-1.8l-0.4,4.1
	l-1.1,4l0.1,0.5c0.1,0.1,0.8,1.8,1.8,2.2h0.1l0,0h0.1c0,0,0,0,0.1,0l0,0l0,0c0.1,0,0.2,0,0.3-0.1c0.7-0.4,0.5-0.9,0.8-1.5
	c0.2-0.5,0.2-0.9,0.3-1.1l0.5-0.3l0,0c0,0.1,0,0.2,0,0.4c0,1.8,0.7,5.5,5.5,9.2c-2.4,1.3-4,3.3-4.1,3.4c-0.1,0.1-0.1,0.2-0.1,0.4
	c-0.5,0.1-0.9,0.1-1.1,0.2c-0.7,0.2-2.6,0.9-3,0.9h-0.1c-1.1,0.2-2.1,1.2-3.6,1.6c-2.1,0.9-1.1,2.7-2.7,2.8
	c-0.8,0.2-1.5,0.8-1.8,1.4c-0.6,1.2-0.8,2.5-1,2.5c-0.4,0.2-0.6,0.6-0.6,0.9l-6.3-3c0-0.2-0.1-0.4-0.1-0.5c0,0,0-0.2,0.1-0.3
	c0.1-0.3,0.2-0.5,0.2-0.7c0-0.7-0.3-1.2-0.5-1.6c0.2-0.2,0.2-0.2,0.2-0.5v-0.1c-0.2-0.9-0.9-1.4-1.4-1.7v-0.2c0-0.3-0.1-0.6-0.2-1
	c-0.2-0.4-0.5-1.9-0.5-1.9c0-0.1-0.1-0.3-0.1-0.6C287.8,97.1,289.7,92.8,289.7,92.7 M278.3,88.9c0.1,0,1.8,0.3,2.2,1.1
	c0.2,0.2,1.8,1.1,1.7,1.4c0.7,1.4,1.8,0.9,1.8,1.8c0,0,0,0.2,0,0.2l0.3,0.5c0,0,0.8,0.6,0.8,1l0.4,0.5c0,0,0.8,0.2,1.1,1.4
	c0,0.2,0.3,1.3,0.3,1.3c0,0.2,0.3,1.6,0.7,2.3c0,0.1,0.1,0.2,0.1,0.4c0,0.2,0,0.3,0,0.5c0,0.2,0,0.5,0.4,0.6c0,0,0.3,0.2,0.6,0.5
	c0.2,0.1,0.2,0.2,0.3,0.3c-0.2,0-0.2,0.1-0.2,0.1c-0.2,0.2-0.2,0.5,0,0.8c0,0,0.6,0.7,0.6,1.3c0,0.2,0,0.2-0.1,0.3
	c-0.1,0.2-0.2,0.5-0.2,0.7c0,0.7,0.2,1.1,0.2,1.5c0,0.3-0.1,0.5-0.5,0.9c-0.1,0.1-1,1-1.8,1.3c-0.5,0.2-0.9,0.2-1.2,0.2
	c-0.1,0-0.1-0.1-0.1-0.1c-0.1-0.2-0.2-0.5-0.4-0.7c-0.5-0.8-1.4-0.8-1.5-3.3v-0.2c0.8-0.4,1.6-0.8,2.2-1.3c0.4-0.4,0.4-0.8,0.4-1.1
	c0-0.9-0.5-2.2-0.5-2.5v-0.2c-0.1-0.7-0.5-3.6-0.5-3.9c0-0.1-0.1-0.1-0.1-0.2c0.1-0.2,0.2-0.3,0.2-0.3l-0.2-0.6c0,0-0.7-0.5-1.6-1.1
	c0-0.1,0.1-0.2,0.1-0.2c-0.1-0.5-0.3-1.3-1.1-2c-0.8-0.7-1.8-1.3-2-1.5c-0.2-0.2-1.5-1.2-1.5-1.2c-0.9-0.3-1.6-0.5-2.2-0.5
	C277.5,89.1,278.1,88.9,278.3,88.9 M282.1,130c0.1,0,2.4,1.5,2.5,2.2c0.2,0.4,0.2,0.9,0.2,1.5c0,0.9-0.2,1.5-1.2,1.9
	c0.1,0-0.5,0.1-1.2,0.2c-0.4,0.1-0.8,0.1-1.1,0.1c-0.1-0.4-0.4-0.8-1-1.1c-0.2-0.1-0.5-0.2-0.8-0.2c-0.4,0-0.9,0.2-1.4,0.5
	c-0.5,0.3-2.6,1.6-3,1.8c-0.5,0.2-1.5,0.1-2.1,1c-0.1,0.2-0.3,0.8-2.4,1.9l-7.3,1.6c-1.5-2.4-5.3-8-5.7-8.4v-0.1
	c-0.2-0.2-0.4-0.5-0.7-0.6v-0.1c0,0-0.2-1-0.2-2.1c0-0.9,0.2-1.6,0.5-1.7c0.2-0.1,0.2-0.2,0.4-0.3c0.2-0.2,0.8-0.7,1.1-1.1
	c0.5-0.5,1.7-1.8,1.9-1.7c1-0.2,1.7-0.8,2.2-1.5c0.5-0.5,1.7-2,3.2-2c0.2,0,0.3,0,0.5,0.1c2.2,0.3,7.4,0.7,7.6,0.9
	c0.8,0.5,3.4,2.5,4.4,2.8c0.2,0,0.6,0,1.1,0.1c0.8,0.2,1.6,0.5,1.9,1.5c0.2,0.2,0.6,0.6,0.6,1.1c0,0.2-0.1,0.5-0.4,1
	c-0.1,0.2-0.1,0.3-0.1,0.5C281.9,129.8,282,130,282.1,130 M276,144.3c-0.2,0.2-0.4,0.5-0.5,0.5c-0.2,0-0.4,0.1-0.5,0.2
	c-0.1-0.1-0.2-0.2-0.2-0.2l-0.8-0.6c-0.2-0.2-0.6-0.2-0.8,0.1c-0.2,0.2-0.2,0.6,0.1,0.8l0.7,0.5c-0.1,0.1-0.1,0.1-0.2,0.1
	c-0.9,0.3-0.9,0.8-1.5,0.9c-0.3,0.1-0.5,0.1-0.9,0.1c-1.5,0-3.7-1-4.1-1.6c-0.8-0.9-1.5-2.4-1.5-2.4c-0.1-0.3-0.5-0.4-0.7-0.2
	c-0.2,0.1-0.4,0.5-0.2,0.7c0,0,0.2,0.2,0.2,0.5c-0.1,0-0.2,0-0.2,0.1l-0.6,0.5c-0.2-0.6-0.2-1.2-0.5-1.8l7.1-1.6
	c2.2-1.1,2.8-2,3-2.4l0,0c0.2-0.2,0.9-0.3,1.4-0.5c0.8-0.3,2.6-1.5,3.3-1.9c0.3-0.2,0.5-0.3,0.7-0.3c0.2,0,0.3,0,0.5,0.1
	c0.1,0,0.2,0.5,0.3,0.7c-0.4,1.8-1.6,2.4-1.6,2.4l-0.3,0.5c0,0-0.1,2.8-0.2,3.9c0,0.2-0.1,0.2-0.6,0.2c-0.3,0-0.6-0.1-0.7-0.1
	c-0.1-0.1-0.4-0.2-0.6-0.2c-0.2-0.1-0.3-0.2-0.4-0.2l0,0c-0.1-0.2-0.2-0.5-0.5-0.5c0,0-0.5,0.2-0.5,0.5l0,0
	C275.1,143.9,275.6,144.2,276,144.3 M275,106.5c-0.1-0.5-0.3-1-0.5-1.5c1.3,0.4,4.1,0.9,8,1c0,2.6,1.6,3.6,1.6,3.7l0,0
	c-1.1,3.4-4.6,4.1-7.3,4.1c-1.2,0-2.2-0.2-2.7-0.2c0.8-1.6,1-3.5,1-3.6c0.1-0.5,0.1-0.9,0.1-1.3C275.3,108.1,275.2,107.4,275,106.5
	 M282.1,93.8c-0.3-0.2-0.7-0.4-0.9-0.5c-0.3-0.2-0.3-0.2-0.3-0.2c0-0.1,0.1-0.2,0.2-0.3c0.2,0.2,0.5,0.3,0.6,0.5
	C281.9,93.4,282,93.6,282.1,93.8 M276.4,90.4c0.6,0,1.2,0.1,2.1,0.3c-0.1,0.1,1.1,1,1.3,1.2c0.1,0.1,0.2,0.2,0.4,0.2
	c-0.2,0.2-0.4,0.5-0.4,1c0,0.5,0.4,1,1,1.2c0.9,0.4,2.6,1.5,3.3,2c-0.2,0.3-0.5,0.8-1.5,1.2c-0.2,0.2-0.4,0.5-0.2,0.8
	c0.1,0.2,0.2,0.3,0.5,0.3c0.1,0,0.2,0,0.2-0.1c0.5-0.2,0.8-0.5,1.1-0.8c0.1,0.4,0.1,0.8,0.2,1.1c-0.1,0-0.2,0-0.2,0.1
	c-0.8,0.5-2.5,1-2.5,1c-0.3,0.1-0.5,0.4-0.5,0.7c0.1,0.3,0.4,0.5,0.7,0.4h-0.1c0.1,0,1.6-0.3,2.8-1c0.1,0.4,0.1,0.6,0.1,0.6v0.1v0.1
	c0.1,0.5,0.5,1.7,0.5,2.5c0,0.3-0.1,0.3-0.1,0.3c-0.6,0.5-1.6,1-2.4,1.4c-5.3,0-8.3-1.1-8.7-1.2c-0.4-1.1-0.5-2.1-0.5-2.7v-0.1
	c0-0.2,0-0.2,0-0.2c0-1.1-0.6-2.4-1.1-3.2c-0.6-0.8-1.1-1.4-1.1-2.4c0-0.2,0-0.3,0-0.4c0.1-1.4,1.6-3.7,1.8-3.7
	C273.7,90.9,274.6,90.4,276.4,90.4 M264.5,104.7c0.2-0.6,0.1-0.3,0.4-2.4c0.2-2,2.3-8.1,2.3-8.1c0.5-0.9,1.8-1.9,1.8-1.9
	c1.1-1.9,2.3-2.1,3.1-2.1c0.3,0,0.5,0.1,0.5,0.1h0.3c0.2-0.1,0.2-0.1,0.4-0.2c-0.3,0.2-0.5,0.2-0.6,0.3c-1.1,0.5-2.2,2.7-2.5,4.4
	c0,0.2,0,0.4,0,0.5c0,1.5,0.9,2.4,1.4,3c0.5,0.6,1,1.8,0.9,2.6v0.2c-0.1,0,0,0.2,0,0.2c0,1.1,0.3,2.8,1,4.3c0.2,0.4,0.3,0.9,0.5,1.5
	c0.2,0.8,0.2,1.4,0.2,1.9c0,0.4,0,0.8-0.1,1.1c0.1,0-1,4.4-1.8,4.6c-0.2,0.1-0.8,0.2-1.5,0.2c-1.1,0-2.6-0.2-3.8-0.4
	c-0.6-0.1-1.1-0.3-1.5-0.5c-0.3-0.2-0.4-0.2-0.5-0.2c-0.5-1.2-1.3-1.5-3.4-3.1c-0.3-0.2-0.3-0.4-0.4-0.7
	C261.3,108.4,263.9,105.8,264.5,104.7 M261.4,111.6c2,1.4,2.4,1.6,2.7,2.4c0.8,1.5,4.3,1.7,6.8,1.8c0.8,0,1.5-0.1,1.9-0.2
	c0.3-0.2,0.6-0.5,0.8-0.8l0,0c0,0,1.5,0.3,3.3,0.3h0.1c0.7,0,1.4-0.1,2.1-0.2l0.2,9.6c-0.2,0-0.5,0-0.5,0c-0.1,0.1-3.3-2-3.8-2.5
	c-1.1-0.7-5.8-0.8-8-1.1c-0.2-0.1-0.5-0.1-0.6-0.1c-2.3,0-3.6,1.8-4.1,2.4c-0.5,0.5-1.1,1-1.5,1.1c-1.1,0.2-2.1,1.6-2.6,2.1
	c-0.3,0.3-0.8,0.8-1.1,1.1c-0.2,0.2-0.2,0.2-0.2,0.2c-1,0.5-1.1,1.7-1.1,2.7c0,0.5,0.1,0.9,0.1,1.3c-0.4-0.2-0.8-0.4-1.1-0.6
	c-0.2-1.3-0.2-2.5-0.2-3.7C254.4,116.9,260,112.5,261.4,111.6 M248.1,129.7c1.5,0.5,6,1.8,8,3.1l0.1,0.1c0.3,0.2,0.5,0.4,0.7,0.6
	l0,0c0.6,0.8,5.5,7.9,5.9,9c-3.3-3.4-9.1-5.6-9.2-5.7c-0.3-0.1-0.6,0.1-0.7,0.3c-0.2,0.3,0,0.6,0.3,0.7l0,0c0,0,9,3.7,10.3,7.7
	c0.2,0.7,0.3,1.1,0.3,1.1c0,0.1,0.5,2,0.5,2.1c-0.2,2.1-1.2,8.3-5.7,9.4c0.7-1.5,1.2-3.1,1.2-5.1c0-2.7-1.1-5.7-3.8-9.2
	c-0.2-0.2-0.5-0.3-0.8-0.1c-0.2,0.2-0.3,0.5-0.1,0.8c2.7,3.4,3.5,6.1,3.5,8.5c0,2.1-0.7,3.8-1.5,5.4c-1.1,1.8-4.2,4.3-8.4,4.9h-0.3
	c-1.5,0-2.6-0.5-3.3-0.9c-0.7-0.5-1.1-0.8-1.1-0.8c-0.1-0.1-0.2-0.2-0.2-0.2c0.7-1.5,1.5-3.2,1.7-4.4c1.1-0.2,3.8-0.7,4.1-2.8
	c0.1-0.4,0.1-0.8,0.1-1.5c0-2.1-1.4-4.6-9.6-7.7c0.9-0.8,3-2.1,6.5-2.1c0,0,2.3-0.1,4.1-0.1c0.3,0,0.5-0.2,0.5-0.5s-0.2-0.5-0.5-0.5
	c-1.8,0-4.1,0.1-4.1,0.1c-5.3,0-7.7,2.7-7.9,3c-0.5,0.3-3.5,2.4-5.1,5.9c-0.8,1.7-1.6,3.6-2.2,5.7c-2.5-1.6-7.8-7-10.2-9.6
	c-0.8-0.8-1.2-1.3-1.2-1.3c-0.2-0.2-0.5-0.2-0.8-0.1c-0.2,0.2-0.2,0.5-0.1,0.8c0,0,0.3,0.3,0.8,0.8c-0.7,0.3-1.9,1-3.1,1.8
	c-0.3-0.2-1-0.6-1.8-1.2c-0.5-0.4-0.5-0.6-0.5-1.5c0-0.5,0.1-1,0.1-1.7c0-0.4,0-0.8-0.1-1.3v-0.2c-0.2-2.2,4.7-3.5,6-3.7
	c1.5-0.2,6.9-1.5,6.9-1.5l2.4-1.1c0,0,0,0.1,0.1,0.1s0.1,0,0.2,0c0.2-0.1,0.2-0.2,0.3-0.2l2.1-0.9c0,0.1,0.2,0.1,0.2,0.2
	c0.5,0.5,1.1,1.2,1.7,1.7c0.5,0.5,1.1,0.5,1.7,0.5c0.3,0,0.6-0.1,0.8-0.1c0.9-0.2,1.9-0.9,2-0.9c0.8-0.5,0.5-1.5,0.7-2
	c0-0.5,0.3-2,0.4-2.3c0.1-0.3,0.5-1.3,0.5-1.6c0.2-0.2,1-0.5,1.5-0.7c0.3-0.2,0.7-0.5,0.7-0.5h0.1c0.1,0,0.3,0.2,0.5,0.2
	c0.2,0.1,0.5,0.2,0.5,0.2c0.2,0.1,0.7,0.2,1.6,0.2c0.5,0,1.3-0.1,2.1-0.3C247.6,130.1,247.9,130,248.1,129.7 M240.7,175
	c0.5,0.1,2.7,1.5,2.8,1.6c0.2,0.2,1.5,1.5,1.5,1.5c0.3,0.6,0.8,0.9,0.8,1c0.5,0.2,1.5,1,1.6,1c0,0.1,2.3,2.8,2.5,3.1
	c0.1,0.1,0.2,0.2,0.2,0.3c0,0,0,0-0.1,0l-3.1-1.9l-2.4-0.9c-0.2-0.1-0.5,0-0.7,0.2c-0.2,0.2-0.1,0.5,0.2,0.7c0.8,0.7,2,2.8,2,2.8
	s0.8,1.8,1.1,2.7c0.1,0.2,0.1,0.3,0.1,0.3c0,0.2,0,0.2-0.3,0.3c-0.2,0-0.5-0.4-0.5-0.4l-1.2-2.1l-2.6-3.4l-0.1-0.1
	c-0.2-0.2-0.5-0.2-0.8,0.1c-0.2,0.2-0.2,0.4-0.1,0.5l0.5,1.5l0.6,1.5l0.6,2.2c0,0,0.5,1.6,0.6,2l0,0l0,0c0,0-0.1,0-0.1,0.1
	c-0.2-0.1-0.5-0.2-0.5-0.2l-2.3-5.1l0,0l0,0v-0.1l0,0l0,0l0,0v-0.1l0,0c0,0,0,0-0.1,0c-0.1-0.1-0.2-0.1-0.3-0.1
	c-0.3,0-0.5,0.2-0.5,0.5l0,0l0,0c0,0-0.1,0.5-0.1,1.2c0,0-0.2,0.3-0.5,0.5c-0.4,0.3-0.8,0.5-0.9,0.5c-0.3,0.1-0.9,0.2-1.4,0.8
	c0-0.1,0-0.1,0-0.1c0-0.2,0.1-0.5,0.1-0.5l0.1-0.1c0.3-0.2,0.8-0.5,1.1-0.8c0.2-0.2,0.2-0.5,0.2-0.6c0-0.6-0.3-1.4-0.5-1.7
	c-0.4-0.8-1.9-1.5-2-1.7c-0.2-0.2-2-1.7-2-1.7c-1.1-0.8-1.8-3.9-2.1-7.5c0,0,0-0.2,0-0.3c-0.2-2.3-0.2-4.7-0.3-7c0-0.3,0-0.6,0-0.9
	c0-2.6,0.4-5,0.9-7c0.6-2.4,1.5-4.4,2.3-6.2c1.3-2.8,3.9-4.8,4.7-5.4c8.6,3.2,9.4,5.4,9.4,6.9c0,0.5-0.1,0.9-0.1,1.4
	c0.2,1.1-3.6,1.9-3.6,1.9c-0.3,0.1-0.5,0.3-0.5,0.5c0,0.8-1.2,3.4-2,5c-0.4,0.8-0.6,1.3-0.6,1.3l-1.6,3.4c0,0.1-2.3,5.3-2.4,6.6
	c-0.1,0.1,0,0.2,0,0.2C238,174.8,240.1,174.6,240.7,175 M205.2,136h0.5c0-2.1-1.5-10.4-1.5-15.9c0-5.2,3-8.5,3.3-8.8
	c1.3,0.1,2.7,0.1,4,0.1c6,0,11.2-0.7,12.5-0.8c0.5,2,1.2,3.4,1.8,4.5l-0.1,0.1l0,0c0,0-0.1,0.8-0.1,2.3c0,1.8,0.2,4.5,0.8,7.8
	c1,4.8,2.3,9.2,2.7,10.6l-2.1,0.9c0.1,0-5.4,1.3-6.7,1.5c-1.4,0.2-6.7,1.1-6.9,4.7c0,0,0,0.2,0,0.2v1.2c0,0.7,0,1.2,0,1.7
	c0,0.9,0.2,1.8,0.9,2.4c0.6,0.5,1.1,0.8,1.5,1.1c-0.7,0.5-1.3,1-1.8,1.5c-1.2,1.5-2.3,3-2.8,4.5c-0.9-0.6-3.3-2.2-4.1-2.4
	c-0.2,0-1.2-0.2-2.3-0.3c0,0,0-0.1,0-0.2c-0.8-1.8-0.9-3.5-0.9-5.1c0-2,0.4-3.6,0.6-4.7c0.6-2.9,1.1-5.8,1.1-7L205.2,136z
	 M231.8,134.8l-1.6,0.7c-0.5-1.6-1.7-5.8-2.7-10.4c-0.7-3.2-0.8-5.9-0.8-7.7v-0.8c0.2,0.3,0.5,0.6,0.5,0.8c0.6,1.1,3.7,5.3,3.7,5.4
	c0,0,2,5.4,1.9,5.4c0.1,0-1.1,1.8-1.5,3.7c-0.1,0.3-0.1,0.5-0.1,0.8C231.3,133.5,231.5,134.2,231.8,134.8 M254.8,97.2
	c0.1,0.2,0.3,0.5,0.4,0.8c-0.3,0.2-1.1,0.5-1.5,0.4c-0.1,0-0.2,0-0.2,0l-0.6-0.3c-0.2-0.2-0.6,0-0.8,0.3c-0.1,0.2,0,0.6,0.2,0.7
	l0.6,0.3c0.2,0.1,0.5,0.1,0.7,0.1c0.9,0,1.8-0.5,2.3-0.7c0.2-0.2,0.4-0.5,0.4-0.7c0-0.3-0.2-0.6-0.3-0.8l0.3-0.1c0,0,2.5,0.4,3,0.5
	c0.2,0,1.2,0.2,2,0.3h-0.1c-0.2,0.2-0.5,0.2-0.5,0.2l-2.5,0.4c-0.2,0.1-0.3,0.1-0.4,0.3c-0.1,0.2-0.1,0.3,0,0.5l0.8,1.3
	c0.1,0.2,0.1,0.3,0.1,0.4c0.1,0.5-0.9,1.2-0.9,1.2l-0.2,0.5c0.1,0.3,0.1,0.6,0.1,0.8c0,1.5-0.9,1.8-0.9,1.8
	c-0.8,0.5-1.5,0.7-2.1,0.7c-1.4,0-2.8-0.8-4-1.5c-0.5-0.2-0.8-0.5-1.2-0.7c-0.9-0.4-1-0.9-1-1.8c0-0.5,0-0.9,0-1.5l0,0
	c0-0.3,0-0.3,0-0.3c0-1.5,0.6-2.8,1-3.2c0.2-0.2,1.7-0.9,2.2-1.1l1.6,0.5L254.8,97.2z M252.5,95.4l-0.8-0.2h-0.2
	c-0.1,0.1-2.1,0.7-2.8,1.6c-0.5,0.7-1.2,2.1-1.2,3.9v0.2c-0.1,0,0,0.1,0,0.1c0,0.5,0,1,0,1.5c-0.1,0.8,0.2,1.8,1,2.5
	c-1.4-0.1-3-0.2-3.2-0.2c-4.8-0.3-6.4-4.8-6.4-4.8c-0.2-0.3-0.2-0.8-0.2-1.2c0-0.7,0.2-1.5,0.2-1.6l2.8-1.5c-0.1,0.1,5-1.7,7.7-2.9
	l0.1-0.1c0.1,0.1,0.1,0.2,0.2,0.2C249.5,92.8,251.5,94.5,252.5,95.4 M250.2,87.9c-0.2,0.3-0.5,0.6-0.9,0.8l-2.8,1.9
	c-0.2,0.2-0.3,0.5-0.2,0.8c0.2,0.2,0.5,0.3,0.8,0.2l2.8-1.8c0.2-0.1,0.2-0.2,0.4-0.3c0,0.6-0.1,1.3-0.2,1.7
	c-0.2,0.2-0.8,0.5-1.5,0.8c-2.7,1.2-7.7,3-7.7,3l-3.4,1.7l-3.7,1.8c2.1-2.2,2.9-6,3.5-7.7c0.5-1.5,1.4-1.7,2.8-2.4
	c0.8-0.5,1.8-1.5,2.9-2.8c0.2,0.2,0.3,0.2,0.5,0.2l0,0l7.9-2.1c0,0,0,0.2,0,0.5C251.5,84.9,251.2,86.6,250.2,87.9 M266.2,74.9
	c-0.3,0.8-1.9,4.7-2.4,6.6c-0.2,0.5-0.2,0.5-0.2,0.5s-0.2-0.1-0.3-0.2c-0.1-0.1-0.2-0.2-0.2-0.2c-0.2-0.2-0.5-0.2-0.6-0.1l0,0
	c-0.1,0-0.1,0.1-0.2,0.1l0,0l0,0c0,0-0.6,0.6-0.8,0.8c0,0.1-0.5,0.1-0.8,0.1l-0.9-1c-0.2-0.2-0.5-0.2-0.8,0
	c-0.3,0.2-0.3,0.5-0.1,0.8l0.8,0.8c-0.1,0.1-0.2,0.2-0.2,0.2v0.1c-0.6,0.2-1.1,0.6-1.2,1.4c-0.1,0.4,0.2,0.2-0.3,0.4l0,0
	c-0.5,0-2.5-1-2.5-1l-3.2-1.7l-0.5-0.2l-0.4-0.1l-7.7,2c0.5-0.9,1-2,1.4-3.1c0.3-0.9,0.5-2,0.5-3c0-0.6-0.1-1.1-0.2-1.7
	c0.2,0.2,0.3,0.4,0.3,0.5c0.2,0.7,0.8,0.7,1.2,0.7c0.6,0,1.2-0.2,1.8-0.1c0.3,0,0.5,0,0.5,0.1c0.5,0.2,0.8,0.2,1.4,0.2
	c1.4,0,3.2-0.5,3.2-0.5c1.9-0.1,3.2-1.5,3.7-1.8c0.6-0.5,1.8-1.4,2-1.5h0.1h0.1h0.2c0.5,0,1.1-0.2,1.7-0.8c0.5-0.5,0.7-1.3,0.8-1.9
	l1.5,1.1c1.5,1,2.1,1,2.8,1.3C266.5,74.3,266.4,74.6,266.2,74.9 M241.4,67.2c0,0,0.2-0.1,0.4-0.1c0.2-0.1,0.5-0.1,0.5-0.1
	c0.3-0.1,0.5-0.3,0.5-0.6v-0.2v-0.1c0-0.3,1.1-1.1,2.4-1.5c1.3-0.4,2.7-0.6,2.7-0.6c0.3,0,0.5-0.2,0.5-0.5c0-1.3,2.1-1.9,4.4-1.8
	c1.9,0,3.7,0.3,3.7,0.3c0.5-0.1,0.9-0.1,1.3-0.1c1.7,0,3.3,0.6,4.6,1.2c1.2,0.6,2.1,1.2,2.1,1.2l0.5,0.1c0.2,0,0.4-0.1,0.5-0.1
	c2.3-0.1,3.7,3,3.7,3l0.4,0.3c1.2,0.4,1.6,1.5,1.6,2.7c0,1.1-0.3,2.1-0.4,2.4c-0.2,0.4,0.2,0.5-1.2,0.9H269c-0.3,0-0.8-0.2-1.2-0.3
	c-1.5-0.6-1.5-0.3-3.2-1.5l-2.2-1.7c-0.2-0.2-0.5-0.2-0.6-0.1c-0.2,0.2-0.3,0.3-0.3,0.5c0,0,0,0.2,0,0.4c0.1,0.5-0.1,1.5-0.5,1.8
	c-0.6,0.5-0.7,0.5-0.9,0.5h-0.2l0,0c-1.1,0.1-2,1.2-2.6,1.5c-0.8,0.5-1.8,1.5-3.3,1.6c-0.1,0-1.8,0.4-3.1,0.4
	c-0.5,0-0.8-0.1-0.9-0.1c-0.4-0.2-0.7-0.2-1.1-0.2c-0.6,0-1.3,0.2-1.8,0.2h-0.3c-0.2-0.6-0.8-1.5-1.8-2.1c-0.1-0.2-0.2-0.4-0.2-0.5
	c-0.6-1.3-1.6-2.5-3-3.6c-0.5-0.4-1-0.7-1.5-1v-0.1l0,0c-0.1-0.2-0.1-0.3-0.1-0.3C240.1,68.3,241,67.4,241.4,67.2 M234,69.1
	c0.1,0,0.2-0.1,0.2-0.1c1.1,0.1,3.1,0.3,5.1,1.3c0.6,0.3,1.1,0.6,1.8,1.1c1.2,0.9,2.1,2.1,2.6,3.2c0.6,1.2,0.8,2.4,0.8,3.7
	c0,0.8-0.1,1.8-0.4,2.6c-0.4,1.3-1.1,2.5-1.7,3.5c-1,1.5-2.2,2.6-2.8,2.8c-1.1,0.5-2.6,0.9-3.3,3c-0.6,1.8-1.6,6-3.4,7.5
	c0.1-0.2-0.4,0.2-0.3,0.8c0,0.2,0,0.4,0.1,0.7c0.1,0.2,0.2,0.6,0.3,1c0.8,1.8,3.1,6.4,3.1,9.6c0.1,0,0,0.1,0.1,0.2
	c-0.1-0.1-0.1,0.1-0.1,0.1c0,3.6,0.7,6.9,1.5,9.6c1.1,2.8,2.1,6,3.7,6.5c0.5,0,1.8,0.5,2.1,0.8c0.7,0.7,2.4,1.4,3,1.7
	c0.2,0,0.5,0.2,0.7,0.4c-0.1,0.1-0.2,0.1-0.3,0.2c-0.6,0.2-1.2,0.3-1.7,0.3c-0.8,0-1.2-0.2-1.2-0.2c0.1,0.1-0.6-0.5-1.4-0.5h-0.1
	c0,0-0.1,0-0.2,0c-0.5,0.2-0.8,0.5-1,0.6c-0.1,0.1-1.1,0.3-1.7,0.9c-0.1,0.1-0.1,0.2-0.2,0.2l0,0v0.1v0.1c-0.1,0.1-0.1,0.2-0.1,0.2
	c-0.2,0.5-0.4,1.2-0.5,1.5c-0.2,0.5-0.4,1.8-0.4,2.5c0,0.6-0.2,1.1-0.2,1.1c-0.1,0.1-1.2,0.8-1.5,0.8c-0.2,0-0.5,0-0.8,0
	c-0.5,0-0.8-0.1-1-0.2c-0.5-0.4-1.1-1.2-1.7-1.7c-0.1-0.1-0.2-0.2-0.3-0.3c-0.3-0.5-0.7-1.1-0.7-2.1c0-0.2,0-0.5,0.1-0.6
	c0.3-1.8,1.3-2.9,1.5-3.8v-0.1c-0.1-0.8-2.1-5.9-2.1-6c-0.1-0.2-3.2-4.4-3.7-5.3c-0.5-0.9-2.1-2.7-3.3-7.2c-0.4-1.5-0.7-3.3-0.9-5.5
	c0-0.2-0.3-1-0.3-2.8c0-0.3,0-0.5,0-0.7c0-0.5,0.1-1.1,0.2-1.7c0.5-3.4,0.3-8,0.4-8.8c0-0.2,0.1-0.5,0.1-1.1
	c0.2-1.6,0.7-4.5,1.5-6.5c0.9-2.5,4.8-9,4.8-9c0.2-0.3,0.1-0.6-0.2-0.8c-0.1-0.1-0.2-0.1-0.2-0.1c-0.2,0-0.4,0.1-0.5,0.3
	c0,0-3.8,6.4-4.9,9.2c-0.8,1.9-1.1,4.5-1.4,6.2h-0.1l0,0c-0.3,0.1-0.6,0.2-1,0.2c-2,0-4.4-2.4-6.7-5.2c-0.8-1.1-1.1-1.9-1.1-2.8
	c0-2,1.6-4.2,4.2-7C221.5,70.4,231.8,69.1,234,69.1 M202.9,90.2c0-0.7,0.4-4.5,0.8-7.3c0.1-0.7,0.2-1.2,0.3-1.7
	c0.6-2.4,2.6-3.2,4.3-4.1c1.8-1.1,3.5-4.5,5.1-5.4c1.5-1,6.2-1.9,9.8-2.7c1.1-0.2,2.8-0.4,4.4-0.4h1.1c-3.8,0.7-8.6,2-10.8,4.4
	c-2.6,2.8-4.5,5.1-4.5,7.7c0,1.1,0.5,2.3,1.3,3.4c2.3,2.8,4.7,5.6,7.5,5.6c0.3,0,0.6,0,0.9-0.1c0,0.2,0,0.4-0.1,0.5
	c-0.1,0.9,0.1,5.3-0.4,8.7c0,0.4-0.1,0.8-0.1,1.2h-0.1c0,0-0.2,0.1-0.3,0.2l0,0l0,0l-5-1.7c-0.8-0.2-5.5-2.1-6.8-2.3
	c-0.8,0-3.4-1-4.3-1.7C205.1,94.3,202.9,90.9,202.9,90.2C202.9,90.2,202.9,90.2,202.9,90.2 M192.3,99c-0.3-0.2-0.8-1.8-0.8-2.8
	c0-0.6,0.2-1,0.2-1.1c1-0.9,3.5-3.9,3.5-3.9c3.1-5.5,6-7.2,7.2-7.7c-0.4,2.6-0.7,5.7-0.8,6.5c0,0.1,0,0.2,0,0.2v0.1
	c0.2,1.4,2.3,4.5,3.7,5.5c1.2,0.8,3.7,1.8,4.9,1.8c0.8,0,5.6,2,6.5,2.2l4.2,1.4c-1.2,0.9-3.2,2.3-5.3,3.7c-0.8,0.5-1.6,0.8-2.2,0.8
	c-2.1,0.1-4.1-1.9-5.4-2.9c-0.7-0.5-1.6-0.7-2.5-0.7c-2.1,0-4.6,0.7-6.8,1.1c-0.2,0-0.4,0-0.5,0c-1.5,0-2.8-0.9-3.8-1.9l-0.1-0.1
	c-0.1-0.1-0.2-0.2-0.2-0.2C193.2,100.2,192.7,99.4,192.3,99 M193.5,103.8c0-0.7,0.2-1.2,0.4-1.5c1.1,1,2.6,1.9,4.4,1.9
	c0.2,0,0.5,0,0.7-0.1c2.4-0.4,4.9-1,6.7-1c0.8,0,1.5,0.2,1.8,0.5c1.3,0.9,3.4,3.1,6.1,3.1c0.8,0,1.8-0.3,2.8-0.9
	c2.5-1.7,4.9-3.4,6-4.1l0.1-0.1c0,1.8,0.3,2.9,0.4,2.9c0.2,1.8,0.5,3.5,0.8,5c-1.5,0.2-6.5,0.8-12.3,0.8c-1.4,0-2.8,0-4.4-0.1
	c-2.2-0.2-4.6-0.4-6.7-0.8c-1.2-0.2-2.4-0.5-3.5-0.9c0,0-0.1,0-0.1-0.1c-0.5-0.2-1.1-0.3-1.6-0.5C193.8,106,193.5,104.7,193.5,103.8
	 M185,147.5L185,147.5l-3.7-2.6c-0.5-0.5-0.6-0.8-0.6-1.1c0-0.5,0.4-1,0.4-1.1c0,0,5.1-5.1,7.4-10.2c1.3-4,1.7-13.3,1.8-13.3
	c0.5-4.6,1.8-7.3,2.8-8.7c0.7-1.1,1.3-1.5,1.6-1.6c0.3,0.1,0.6,0.2,0.8,0.3c-1.1,1.3-4,5.1-4.1,11.2l-1.3,16c0,0.1,0,0.2,0,0.2
	c0,0.2-0.1,0.9-0.9,3.1c0,0-1.3,2.9-2.1,4.5c-0.5,1.2-0.6,1.3-0.7,1.5C186.2,146.3,185.3,147.3,185,147.5 M190.5,149.9
	c-0.6-0.1-1.5-0.3-2.3-0.5c-0.7-0.2-1.3-0.4-1.8-0.6c-0.2-0.1-0.5-0.2-0.5-0.2h-0.1c0-0.1-0.1-0.2-0.1-0.2c0.4-0.4,1.2-1.3,1.6-2
	c0.2-0.2,0.2-0.4,0.8-1.6c0.8-1.7,2.1-4.6,2.1-4.6c0.8-2.2,1-3.1,1-3.6v-0.2l1.2-15.9c0.2-6.6,3.7-10.4,4.2-10.9
	c0.8,0.2,1.5,0.4,2.3,0.5c-1.5,1.3-4.5,5-4.5,11.6c0,0,0,0.2,0,0.2c0,3.4,0.3,7.3,0.3,11c0,5.1-0.5,10-2.2,13.2
	c-0.3,0.5-0.5,0.8-0.8,1.2C191.8,147.5,190.7,148.6,190.5,149.9 M197.7,152.6c-0.2-0.2-0.7-0.5-1.1-1c-1.3-1.4-2.8-1.2-4.7-1.3
	c-0.3-0.1-0.2,0-0.3-0.2c-0.1-0.5,1.1-2,1.1-2c0.4-0.5,0.6-0.9,0.8-1.4c2-3.5,2.4-8.6,2.4-13.7c0-3.8-0.2-7.7-0.3-11v-0.2
	c0-8.1,4.8-11.2,4.7-11.2c0,0,0,0,0.1,0c1.8,0.3,3.7,0.5,5.6,0.7c-1,1.4-3,4.5-3.1,8.9c0,5.7,1.6,13.9,1.6,15.9c0,0,0,0.2,0.1,0.3
	c-0.1,0.8-0.5,3.8-1.1,6.7c-0.2,1-0.6,2.7-0.6,4.8c0,1.5,0.2,3.3,0.9,5.1c-0.5-0.1-1.1-0.2-1.5-0.2l0,0h-0.2c-0.2,0-0.2,0-0.4,0.1
	l0,0c-0.5,0.1-0.8,0.1-1.3,0.1C198.9,152.9,197.7,152.6,197.7,152.6 M203.3,163.8c-0.1,0.1-0.2,0.2-0.3,0.3c-0.8,0.7-2.5,1.8-3.1,2
	l0,0c-3-0.1-3.4-1.6-3.5-3.8c0-1.5,0.4-3,0.5-4.1c0.1-1.7,3.6-3.9,4.8-4.2c0.2-0.1,0.3-0.1,0.5-0.1h0.1c0.7,0,1.6,0.2,2.5,0.2
	c1.1,0.2,2.1,0.3,2.4,0.3c0-0.1,1.1,0.5,2.1,1.2c0.8,0.5,1.7,1.1,1.8,1.2v0.2v0.2c0,1.2,0.6,2.2,1.2,3c-1.1-0.1-2.2-0.1-2.6-0.1
	h-0.1l0,0C208.1,160.3,204.3,162.6,203.3,163.8 M204.6,164.5c0-0.2-0.1-0.2-0.2-0.3c1-0.9,4.5-2.9,5.1-2.9l0,0l0,0
	c0.8,0.1,2.5,0,4.1,0.2c1.1,0.1,2.1,0.4,2.1,0.5c0.7,0.8,1,3.7,1.8,4.6c0.5,0.4,3.8,3.1,3.8,3.1c0.2,0.2,0.6,0.2,0.8-0.1
	c0.2-0.2,0.2-0.6-0.1-0.8c0,0-3.4-2.8-3.8-3.1c-0.2,0.1-0.8-3.3-1.6-4.4c-0.5-0.6-1.5-0.8-2.4-0.9l0,0c-0.6-0.5-1.9-1.8-1.9-3.1
	c0,0,0,0,0-0.1c0-0.2,0.1-0.4,0.1-0.6c0.3-1.4,1.4-3.1,2.7-4.7c0.5-0.5,1.3-1.2,2.2-1.8c1.5-0.9,3.1-1.8,3.7-2.1
	c2.6,2.8,7.8,8,10.4,9.6l0,0c-0.5,2.1-0.8,4.3-0.8,6.8c0,0.2,0,0.6,0,0.9c0.1,2.2,0.2,4.7,0.3,7c-1.8,1.5-4.4,1.9-7.3,1.9
	c-2.1,0-4.4-0.2-6.6-0.3c-4.8-0.3-8.9-2.9-10.4-4.4c-0.2-0.2-0.3-0.3-0.4-0.4C204.9,167.8,204.6,164.5,204.6,164.5 M256.8,190.3
	c0.4,0.5,1.1,1.5,1.9,2.9c0.4,0.7,0.6,1.9,0.6,3.1c0,1.6-0.2,3.2-0.4,4.1c0,1.1-0.8,1.1-2.8,3.5c-0.8,0.9-2.3,1.3-3.8,1.3
	c-1.6,0-3.2-0.4-4.2-0.7c-2.2-0.6-7.1-1.6-10-2c-2.6-0.2-8.3-3.6-9.6-4.3c-1.2-0.5-7.9-6-8.6-6.7c-1-0.8-2.8-1.2-3.6-1.4
	c0,0,0,0-0.1,0c-0.1,0-0.1,0-0.1,0c-1.5,0.1-5.7,3.3-6.2,3.6c-0.5,0.2-1.1,0.8-1.5,1.5c-0.1,0.2-0.2,0.5-0.2,0.5
	c0,0.5,0.2,0.8,0.4,1.2c0.4,0.8,1.3,0.8,1.5,1c0.3,0.2,0.8,0.2,1.3,0.4c-0.1,0.2-0.2,0.2-0.3,0.4c-0.2,0.2-0.2,0.3-0.4,0.4
	c-0.1,0.2-0.1,0.1-0.1,0.1c-0.7,0.5-0.5,1.1-0.5,1.3c-0.1,0.1-0.5,0.2-0.5,0.2c0.1,0,0,0-0.1,0c-0.2,0-0.6-0.1-0.9-0.1
	c-0.2,0-0.2,0-0.2,0l0,0c-0.2,0-1.1-0.1-1.1-0.1l0,0c-0.1-0.1-0.2-0.2-0.4-0.4c-0.1-0.1-0.1-0.2-0.1-0.2c-0.3-0.8-2.5-4.6-2.6-5.4
	l-0.2-0.1h0.2c0-0.9,1.7-5.3,2.5-7.1c1-2.1,1-4.4,1.1-5.4c0-0.6,0.5-1.1,0.7-1.5c4.3,3.7,8.1,8,13.3,10.4s16.5,7,17.8,7.3
	c0.2,0.2,0.7,0.3,1.3,0.5c2.2,0.9,6.4,2.8,6.8,3.2c0.2,0.2,0.5,0.2,0.8,0c0.2-0.2,0.2-0.5,0-0.8c-0.5-0.5-2.4-1.5-4.3-2.2h0.5
	c9.1,0.1,10.1-4.6,11.8-8.3C256.6,190.8,256.7,190.5,256.8,190.3 M253.6,179.6c0.7,2.1,1.3,4,1.4,4.3c0.3,0.8,1.2,1.8,1.2,3.7
	c0,0.3-0.1,0.7-0.1,1.1c-0.1,0.2-0.1,0.3-0.2,0.5c-0.2,0.5-0.3,0.8-0.5,1.4c-2,3.9-2.1,7.5-10.8,7.7c-0.3,0-0.7,0-1.1,0l-2.4-0.2
	l0,0h-0.1c-0.5-0.2-0.9-0.4-1.1-0.5c-1.1-0.4-12.5-4.9-17.6-7.3c-5-2.4-8.8-6.6-13.2-10.4c-0.2-0.1-0.2-0.2-0.2-0.2
	c-2.2-2.1-2.7-5-2.7-7c0-0.7,0.1-1.2,0.2-1.7c2,1.7,5.8,3.8,10.4,4.1c2.2,0.2,4.5,0.4,6.7,0.4c2.8,0,5.4-0.4,7.4-1.8
	c0.3,3.2,0.8,6,2.4,7.3c0,0,1.8,1.5,1.9,1.6s0.6,0.5,1,0.8c0.2,0.2,0.5,0.3,0.5,0.5c0.2,0.2,0.2,0.2,0.2,0.2c0.1,0.2,0.4,1,0.4,1.3
	c-0.2,0.1-0.9,0.5-1.2,0.9c-0.1,0.2-0.2,0.5-0.2,0.9c-0.1,0.4,0.1,0.9,0.6,1.2c0,0,0.2,0.1,0.5,0.2c0.3,0,0.6-0.2,0.8-0.5
	c0.2-0.3,0.5-0.4,0.8-0.5c0.4-0.2,1.6-0.5,2.1-1.4l1.8,3.8c0.3,0.2,0.8,0.5,1.3,0.5c0.2,0,0.4-0.1,0.5-0.1c0.2-0.2,0.7-0.5,0.7-1.1
	c0-0.2,0-0.3-0.1-0.4c-0.1-0.3-0.5-1.9-0.5-1.9l-0.5-1.9l0.4,0.5l1.3,2.2c0.2,0.1,0.5,0.8,1.4,0.9c0.2,0,0.2,0,0.3-0.1
	c0.3-0.2,1.1-0.5,1.1-1.3c0-0.2-0.1-0.5-0.2-0.7c-0.4-0.9-1.1-2.8-1.1-2.8s-0.4-0.8-0.9-1.5l0.4,0.2l3.1,2l0.3,0.1
	c0.1-0.1,0.6,0,1.1-0.5c0.2-0.2,0.2-0.5,0.2-0.6c0-0.5-0.3-0.8-0.5-1.1c-0.2-0.2-2.6-3.2-2.6-3.2c-0.1-0.1-1.1-0.8-1.8-1.1
	c0,0-0.4-0.4-0.3-0.5c-0.3-0.7-1.5-1.6-1.8-2c-0.5-0.3-2.3-1.5-3.3-1.8c-0.8-0.2-2-0.5-2-0.8V173l0,0c0.3-1.3,2.4-6.4,2.4-6.4
	l1.6-3.3c0,0,0.2-0.4,0.5-0.9c0.5,0.5,2.1,2,5.1,2c0.2,0.5,2.4,5,2.5,6.4C251.2,172,252.5,176.2,253.6,179.6 M253.1,174.3
	c-0.5-1.7-0.9-3.1-1-3.6c-0.2-1.6-1.9-5.1-2.4-6.3c3.9-0.8,6.9-3,8.3-5l0,0c2-0.3,3.4-1.3,4.5-2.6c-0.2,1.6-0.6,3.5-1.7,6.3
	c0,0-0.8,2.3-1.8,4.3C258.5,169.2,254.4,173,253.1,174.3 M257.1,171.9c1.3-1.4,2.5-3,2.8-4.1c0.4-0.7,0.6-1.3,0.9-2
	c0.1,3.3,0.4,8.2,0.5,10.4C259.1,174,257.2,172,257.1,171.9 M284.1,175.2c-0.1,0.5-0.1,1.2-0.1,1.9c0,0.4,0,0.8,0.1,1.1
	c-0.5-0.2-0.9-0.2-1.4-0.2c-2.4,0.1-4.4,1.8-6.8,2.7c-2.4,0.8-4.9,1.1-6.1,1.1c0.9-2.4,3.4-9.3,4.1-15.1c0,0,0.4-3.5,0.7-8.4
	c0-0.2-0.2-0.5-0.5-0.5c-0.3,0-0.6,0.2-0.6,0.5l0,0c-0.4,4.8-0.7,8.3-0.7,8.3c-0.6,5.9-3.4,13.3-4.1,15.2c-1.3-0.4-3.7-2.4-6-4.5
	v-0.1l0,0c0,0-0.6-8.7-0.6-12.7c0-0.8,0.1-1.4,0.1-1.6v-0.1c1.4-4,1.5-6.4,2.1-8.3v-0.2c1-2.1,1.3-4.5,1.3-5.6l0,0
	c0-0.6-0.5-2.4-0.5-2.4s-0.2-0.5-0.2-1.1l0.9-0.8c0,0,0,0,0.1,0c0.3,0.5,0.5,0.9,0.9,1.3c0.9,1,3,2,5,2c0.4,0,0.8-0.1,1.1-0.2
	c1.1-0.3,1.4-1,1.5-0.9c0.8-0.2,1.3-0.8,1.6-0.8c0.8-0.2,1.2-0.9,1.5-1.4c0.2,0,0.3,0.1,0.5,0.1c0.5,0,1.6-0.2,1.7-1.3
	c0.1-0.9,0.1-2.9,0.2-3.7c0.5-0.3,1.4-1.2,1.8-2.8c0.9-0.1,2.5-0.2,2.5-0.2c1.7-0.5,2.1-1.8,2.1-3c0-0.7-0.2-1.3-0.3-1.8
	c-0.4-1.1-1.8-2.1-2.6-2.5c0.2-0.4,0.3-0.8,0.3-1.1c-0.1-1.1-0.8-1.7-0.8-1.8c-0.3-1.1-1.3-1.6-2.1-1.8l-0.2-10.1
	c1.8-0.5,3.7-1.6,4.7-3.7l0.2,0.2c0,0,0.2,0,0.5,0c0.4,0,1-0.1,1.7-0.3c1.1-0.5,2.1-1.5,2.1-1.5c0.5-0.4,0.8-0.9,0.9-1.5l6.3,3
	c0.1,0.4,0.2,0.7,0.2,1v0.2c-0.1,0.2-0.1,0.4-0.1,0.4c0.1,1.2,0.9,1.8,0.9,1.8c0.1,0.1,0.2,0.2,0.2,0.2v0.3c0,0.9,0.1,1.8,0.2,3
	c0,0,0.2,1.9,1.5,3.6c0,0.1,0,0.1-0.1,0.1c0,0-0.6,1.7-0.9,1.8c-0.8,0.6-3.1,3.5-3.1,6.3c0,0.2,0,0.5,0.1,0.8
	c0.5,2.4,1.8,6.5,1.8,6.5c0.1,0.3,0.3,0.4,0.6,0.4l0.5-0.1c-0.3,0.8-0.9,2.4-1.1,2.5c-0.3,0.3-2.2,1.5-3.7,5.9
	c-0.3-0.2-0.8-0.3-1.5-0.3c-0.8,0-1.8,0.3-2.9,1.3c-1.4,1.3-1.8,1.7-1.9,1.7c0,0.1-0.1,0.1-0.1,0.1l0,0c0,0,0,0-0.1,0.1
	c-0.5-1.2-0.7-2.4-0.7-3.4c-0.1-5.4,6-7.8,6-7.8c0.2-0.2,0.4-0.5,0.3-0.8c-0.2-0.3-0.5-0.4-0.7-0.3c0,0-1.8,0.8-3.6,2.4
	c-0.1-1.3-0.2-3.5-0.3-5.3c0.2-0.3,1.1-3.1,2.3-6.1c1.2-3.1,3.1-6.5,3.8-6.7c0.3-0.2,0.5-0.5,0.3-0.8c-0.1-0.3-0.5-0.5-0.7-0.3
	c-1.8,0.8-3.7,5.3-5.1,8.9c0.5-2.5,1.2-6,2-9.3c0.1-0.3-0.2-0.5-0.5-0.6s-0.5,0.1-0.6,0.4c-1.2,5.4-2.5,11.5-2.6,12.9
	c-0.1,0.3-0.1,0.7-0.1,1.1c0,2.4,0.3,6.5,0.4,6.9c-1.1,1.3-2.1,3.1-2.1,5.4c0,1.2,0.2,2.6,0.9,4.1c0,0.1,0.1,0.2,0.1,0.2
	c-0.8,1.1-0.8,1.2-1.1,1.7c-0.2,0.6-0.9,3.6-0.9,4.4l0,0l0,0c0,0.2,0,0.5-0.1,0.8c-0.1,0.2-0.1,0.3-0.1,0.4l0,0
	c-0.1,0.1-0.8,0.5-1.1,0.7c-0.3-0.5-1.1-1.6-1.9-1.9c-0.2-0.1-0.5-0.1-0.7-0.1c-0.3,0-1,0.1-1.1,0.8c0,0.1,0,0.2,0.1,0.3
	c-0.3,0.1-0.8,0.2-0.9,1c0,0.5,0.3,0.8,0.8,1.2l1.6,1.5c0.1,0,1.5,1.3,2.7,1.6c0.2,0.1,0.6,0.1,0.9,0.1c0.6,0,1.3-0.2,1.8-0.5
	c-0.1,0.2-0.2,0.5-0.2,0.5c-0.5,0.7-0.9,2.1-0.9,3c0,0.2,0,0.4,0.2,0.6c0-0.2,0.2,1.1,1.4,1.3c0.5,0,0.8-0.3,1.1-0.8l0.2-0.3
	c-0.5,1.5-0.9,2.8-1.2,3.4C285.7,171.4,284.2,173.2,284.1,175.2 M289.9,153.5c-0.3-0.1-0.6,0.1-0.7,0.4c-0.1,0.3-0.8,1.1-0.8,2.6
	c0,0.7-0.7,0.7-0.8,0.7c-0.2-0.1-0.3-0.3-0.4-1c0-0.5,0.1-1.1,0.2-1.5c0.1-0.3-0.2-0.5-0.5-0.6c-0.3-0.1-0.5,0.2-0.6,0.5
	c0,0.2-0.2,0.9-0.2,1.6c0,0.5,0.2,1.3,0.6,1.8c0,0.2-0.1,0.8-0.2,1.5c-0.1,0.1-0.2,0.2-0.2,0.2c-0.5,0.7-1.3,0.9-2,0.9
	c-0.3,0-0.5,0-0.7-0.1c-0.7-0.2-2.2-1.4-2.2-1.4l-1.7-1.5c-0.2-0.2-0.2-0.2-0.3-0.3c0.2-0.1,0.7-0.2,0.9-0.9v-0.2
	c0.1,0,0.2,0,0.3,0.1c0.1-0.1,1.5,1.6,1.5,1.7c0.3,0.3,0.3,0.2,0.5,0.3c0.8-0.1,1.7-0.8,2-1.1c0.5-0.6,0.5-1.4,0.5-2l0,0l0,0
	c0-0.3,0.8-3.6,0.8-3.9c0.2-0.5,0-0.2,1.6-2.3c0.1-0.1,0.5-0.4,2-1.8c0.8-0.8,1.6-1,2.1-1c0.5,0,0.8,0.2,1.1,0.3
	c-0.7,2.2-1.4,5.1-1.8,9c0,0-0.9,3.1-1.8,6.4c-0.1,0-0.1,0.1-0.2,0.1l-1.1,1.8l-1,1.4c-0.2,0.3-0.3,0.3-0.3,0.3
	c-0.1,0.1-0.1,0-0.2-0.3c-0.2-0.2-0.2-0.4-0.2-0.4l-0.2-0.2h0.2c-0.1-0.4,0.5-2.1,0.8-2.4c0.3-0.5,0.4-1.3,0.6-2.3
	c0.1-0.7,0.2-1.4,0.2-1.8c0.5-0.1,1.6-0.4,1.7-1.8c0.1-1.1,0.5-1.5,0.8-2.3C290.3,153.9,290.1,153.6,289.9,153.5 M285,210.8
	l-15.6-5.3v-3.2l15.6,5.1V210.8z M316.3,202l-30.2,8.9v-3.6l30.2-8.6V202z M296.8,200.9c0.3-0.1,0.5-0.3,0.4-0.6l-0.7-4.7l2.6-0.6
	l15.5,3.2l-29,8.3l-14.8-4.8l15-3.5l-0.9,4.8c-0.1,0.3,0.1,0.5,0.4,0.6c0.3,0.1,0.5-0.1,0.7-0.3l2.1-5.6l6.5-1.5l1.6,4.5
	C296.3,200.8,296.6,201,296.8,200.9 M288.6,196.3l3.1-8l2.4,6.7L288.6,196.3z M295.3,194.8L295.3,194.8l-3.1-8.1
	c-0.1-0.2-0.3-0.3-0.5-0.3s-0.5,0.2-0.5,0.3l-4,10h-0.1l1-7.1v-0.1c0.2-0.5,0.6-1.3,0.8-2.2c0.3-1.3,1.2-4.6,2.1-6
	c0.5-0.8,1.5-1.1,2-1.3l0.1,1.4L295.3,194.8z M304.3,153.3c-3.9,7.2-9.4,13.7-9.9,14.8c-0.2,0.6-0.4,1.3-0.4,2.1
	c0,1.1,0.2,2.6,0.8,5.1c0.2,0.5,0.2,1.1,0.2,1.6c0,1.1-0.3,2.2-0.7,3l-0.1-0.8c0-0.3-0.3-0.5-0.6-0.5c-0.1,0-2.1,0.2-3.4,2
	c-1.1,1.7-2,5-2.3,6.4c-0.2,0.7-0.5,1.4-0.7,1.8c-0.2-0.2-0.3-0.6-0.3-0.9l0,0l0.1-0.2l-0.5-7.3l-0.2-0.4c-0.4-0.2-0.6-0.5-0.8-0.8
	c0-0.1-0.1-0.1-0.1-0.1s0-0.2-0.2-0.3c-0.2-0.5-0.2-1.1-0.2-1.8c0-0.6,0.1-1.2,0.1-1.8c-0.1-1.4,1.4-3.3,2.5-5.7
	c0.5-1.1,1.5-4.1,2.3-7c1.1-3.4,2-6.7,2-6.7c0.5-4.2,1.2-7.2,2-9.4c1.6-4.7,3.2-5.6,3.7-6c0.8-0.8,1.6-3.4,1.6-3.4l10.3-1.5
	c0,0,0.6-0.2,1.4-0.5l-3.1,6.7l-0.1,0.3c0,0.2,0,0.5,0,0.7c0,2.3-0.9,5.2-2.3,8.1C305,151.8,304.6,152.5,304.3,153.3 M315,161.6
	c0,0-4.2,6.4-4.7,7.3c-0.5,0.8-0.5,2.1-0.6,3c0,0.5,0,0.9,0.1,1.1c0,0.5-0.4,1.8-0.4,1.8c-0.1,0.2-0.1,0.5-0.1,0.6
	c0,1.2,0.7,2.5,1.4,3.4c0.8,0.9,1.7,1.5,1.9,2.1v0.2c0.1,0.5-0.7,1.5-1.8,2c-0.6,0.3-2,0.5-3.5,0.5c-1.1,0-2.4-0.1-3.4-0.2
	c-1.5-0.2-1.6-1.3-1.6-2c0-0.2,0-0.3,0-0.3c0,0.1,1-3.2,1.2-3.7c0.2-0.5,0.2-1.1,0.2-1.8c0-0.6,0-1.2-0.1-1.7
	c-0.1-0.1-0.1-0.2-0.1-0.2c0-0.8,1-3.2,1.9-4.4c0.8-1.1,0.8-2.9,0.8-4.3c0-0.8-0.1-1.5-0.1-1.7c-0.1-0.1-0.1-0.5-0.1-0.9
	c0-2.4,0.1-8.9,0.1-10.2c4.4-1,8.3-1.5,11.3-1.8C317,158.7,315,161.5,315,161.6 M318.9,181.8l-1.1-4.3c-0.9-2.4-1.2-4.6-1.2-6.5
	c0-3.8,1.4-6.5,1.8-7.6c0.5-1.5,4.1-8.3,4.1-8.3l2.1-4.6l0.3-1.4c0.1-0.3,0.2-0.6,0.2-1.1c0.6-2.4,1.4-6.7,1.5-8.3
	c0-0.2,0-0.2,0-0.4c0-1.8-0.8-5.1-1.3-6.7c-0.3-0.7-0.4-1.3-0.4-2c0-0.5,0.1-1,0.2-1.6c0.1-1,1.5-6,1.8-7.5l6.7-0.3
	c0.1,0,2.3-0.2,3.8-1.2c0.2-0.2,0.3-0.5,0.2-0.8c-0.2-0.2-0.5-0.3-0.8-0.2c-1.2,0.8-3.4,1.1-3.4,1.1l-9.9,0.5
	c-0.3,0-0.5,0.3-0.5,0.6c0,0.3,0.2,0.5,0.5,0.5l0,0l2.1-0.1c-0.3,1.6-1.5,6.2-1.7,7.3c-0.1,0.5-0.2,1.1-0.2,1.8
	c0,0.7,0.2,1.5,0.5,2.4c0.5,1.3,1.2,4.7,1.2,6.3v0.2c-0.1,1.6-0.8,5.9-1.4,8.3c-0.1,0.3-0.2,0.6-0.2,0.8c-0.8,0-2.8,0-5.6,0.3H318
	c-2.9,0.2-6.8,0.8-11.2,1.8c1.2-2.7,2.1-5.4,2.1-7.7c0-0.2-0.1-0.5-0.1-0.7l3.4-7.3v-0.1c0.1-0.2,0.1-0.2,0.1-0.3
	c0.8-0.4,1.7-0.8,2.2-1.5c1.4-1.6,5.1-7.7,5.1-7.8l0.1-0.1c0.3-0.5,0.7-1.1,1-1.7c0,0,0.1-0.2,0.2-0.3h0.1c0.1-0.3,0.2-0.6,0.3-0.9
	c0.5-1.1,1.2-2.7,1.9-4.1c0.1,0.2,1.2-0.6,1.5-0.6c4.1-1.6,5.4-6.8,5.5-6.9v-0.4c2.1,2.4,7.2,7.9,13,9.6c-5.1,6.2-9,12.9-11.9,19.3
	c-0.2-2.1-0.2-3.8-0.2-5c0-1.1,0.1-1.6,0.1-1.6c0-0.3-0.2-0.5-0.5-0.6c-0.3,0-0.5,0.2-0.6,0.5c0,0-0.1,0.6-0.1,1.6
	c0,1.5,0.1,3.9,0.5,6.8l0.1,0.1c-7.2,16.7-8.1,31.1-8.1,31.2s0,0.2,0.1,0.2c0,0.2-0.1,0.3-0.1,0.5c0,1.5,1.2,3,4.6,4h0.1
	c0.1,0,0.1-0.1,0.2-0.1c-0.2,1.2-0.5,2.4-0.8,3c-1.3,3.1-2.2,5.4-2.2,6.9l0,0c0,0.5-0.1,1.2-0.3,2c-0.1-0.1-0.2-0.1-0.2-0.1
	C321.3,188.2,320.9,188.1,318.9,181.8 M323.2,172.6c0,0,1.6-2.4,1.8-2.5c0.7-0.5,1.8-1.5,3.3-2.6c-0.2,1.7-0.7,5.5-1.2,8.6
	c-0.1,0-0.1-0.1-0.2-0.1c-3.2-1-3.9-2.1-3.9-3C323.1,172.9,323.2,172.7,323.2,172.6 M335.2,195.2L335.2,195.2L335.2,195.2
	c0,0.7-1.3,2.1-1.8,2.3c-0.4,0.3-1.6,0.8-2.3,1.2c-0.2,0.1-0.5,0.2-0.9,0.2c-0.4,0-0.8-0.1-1.2-0.1c-0.6,0-2.3-0.6-2.3-0.6h-0.3
	c0,0-1.2,0.2-2.2,0.2c-0.2,0-0.4,0-0.5-0.1c-0.6,0.1-0.8-0.9-0.9-2.6c0-0.1,0-0.2,0-0.3c0-0.4,0.1-0.8,0.2-1.2
	c0.3-0.9,0.7-1.8,1-2.3c0.5-1,1.2-4,1.2-5.4l0,0h-0.5h0.5c0-1,0.9-3.4,2.1-6.4c1.4-3.3,2.4-13.5,2.4-13.5s0-0.2,0-0.2
	c5.3-4.3,12.9-10.6,14.9-13.3c0.2-0.4,0.5-0.8,0.9-1.1v0.3c0,12.1-11.7,28.5-12.9,30.8c-0.5,0.8-0.5,1.7-0.5,2.7
	c0,1.5,0.3,3,0.5,3.9c0.2,0.7,0.3,1.1,0.3,1.1C332.8,191.1,335.1,194.5,335.2,195.2 M355.4,190.3h-1.1c-2.1-0.1-2.3,0-4.5-0.2
	c-1.1-0.1-2.2-0.1-3.4-0.2c0,0-0.1,0-0.1-0.1c-3.5-0.8-8.3-6-8.3-6c-0.2-0.2-0.5-0.2-0.8-0.1c-0.2,0.2-0.2,0.5,0,0.8
	c0.2,0.2,3,3.4,6.1,5.2c-1.7-0.1-3.2-0.2-4.6-0.2c-1.5-0.2-2.8-0.2-3.7-0.3c-0.5-0.1-0.8-0.1-1.1-0.2c-0.2,0-0.2,0-0.3-0.1
	c-0.1,0-0.2-0.1-0.2-0.1c-0.2-0.9-0.4-2.1-0.4-3.1c0-0.8,0.1-1.7,0.4-2.1c0.7-1.4,6-9,9.6-17.4c2,2.2,3.9,4.4,5.7,6.4
	c0,0.1-0.1,0.2-0.1,0.2c0.2,11.4,5.4,15.8,8.5,17.5C356.5,190.3,356,190.3,355.4,190.3 M359.8,190.2c-0.1,0-0.1,0-0.2,0
	c0,0-9-1.6-9.8-16.4c3.1,3.4,5.5,5.8,5.5,5.8c0.1,0.1,0.2,0.2,0.4,0.2s0.3-0.1,0.4-0.2c0.2-0.2,0.2-0.5,0-0.8c0,0-6.5-6.8-12.4-13.5
	c-0.1-0.1-0.2-0.1-0.2-0.2c1.8-4.3,3-8.7,3-12.8c0-0.4,0-0.8,0-1.1c1.8-1.1,4.2-1.4,5.5-1.4c0.8,0,1.2,0.1,1.2,0.1
	c0.3,0,0.6-0.2,0.6-0.5c0.1-0.3-0.2-0.5-0.5-0.6c0,0-0.5-0.1-1.4-0.1c-1.5,0-4.2,0.2-6.5,1.8c-0.7,0.5-1.4,1.1-1.9,1.8
	c-1.8,2.5-9.8,9.2-15.1,13.5c-1.8,1.4-3.2,2.5-4.1,3.2c-0.2,0.2-0.3,0.3-0.5,0.5c0,0.1-0.2,0.2-0.5,0.5c0.8-7.3,4.7-30.8,20.8-50
	c0.6,0.1,1.2,0.2,1.8,0.2c0.2,0,0.5,0,0.8,0l-4,15.7c-0.1,0.3,0.2,0.6,0.4,0.7c0.3,0.1,0.5-0.1,0.6-0.4l4.1-16.2
	c1.1-0.2,2.2-0.7,3.3-1.5c1.5-1,6.5-3.4,8-6.1l4.6-3.7c0,0,1-0.8,2-2.1c2.1,5.3,3.4,12.6,4.5,22.6c0.4,3.5,0.5,6.9,0.5,10.2
	c0,12.2-2.3,22.8-4,29.4c-0.2-6.5-1.3-17.5-1.3-25.2c0-2.4,0.1-4.5,0.3-6c0.5-2.6,0.6-5.2,0.6-7.4c0-4.4-0.6-7.7-0.6-7.7
	c-0.1-0.3-0.3-0.5-0.6-0.5c-0.3,0.1-0.5,0.4-0.5,0.7c0,0,0.6,3.1,0.6,7.4c0,2.2-0.2,4.7-0.6,7.3c-0.3,1.5-0.4,3.7-0.4,6.1
	c0,8.9,1.4,22.1,1.4,27.7c0,0.8,0,1.4-0.1,1.8v0.1c-0.3,1.5-0.5,3-0.5,4.6c0.1,4.8,1.3,9.7,3.4,11.8
	C366.8,189.6,363.2,190,359.8,190.2"/>
<path class="st1" d="M274.9,96.4c0.2,0,0.3-0.1,0.5-0.2c0,0,0.5-0.6,1-1.1v0.1l0.2,0.3c0.2,0.2,0.5,0.3,0.8,0.2s0.3-0.5,0.2-0.7
	l-0.2-0.3c-0.1,0-0.1-0.1-0.1-0.1c0-0.1,0.2-0.1,0.2,0h0.1c0.2,0.2,0.5,0.2,0.8-0.1c0.2-0.2,0.2-0.5-0.1-0.8s-0.5-0.3-0.8-0.3
	c-1.6,0.2-2.8,2.2-2.9,2.2c-0.2,0.2-0.2,0.6,0.2,0.8C274.6,96.4,274.8,96.4,274.9,96.4"/>
<path class="st1" d="M275.3,140.2c-0.2,0.2-0.2,0.5-0.1,0.8c0.2,0.1,0.3,0.2,0.5,0.2s0.2-0.1,0.4-0.2l0.5-0.4
	c0.4,0.2,0.8,0.2,0.8,0.3c0.3,0.1,0.5-0.2,0.6-0.4c0.1-0.3-0.1-0.6-0.4-0.7c0,0-1.8-0.6-2-1c-0.2-0.2-0.5-0.3-0.8-0.2
	c-0.3,0.2-0.4,0.5-0.2,0.8s0.5,0.5,0.8,0.8H275.3z"/>
<path class="st1" d="M260.5,75.6c-0.2,0.3-0.1,0.6,0.2,0.8l0.9,0.5l-0.2,0.4c-0.2,0.2-0.2,0.6,0.1,0.8c0.3,0.2,0.6,0.1,0.8-0.2
	l0.2-0.5l1,0.7c0.1,0.1,0.2,0.1,0.3,0.1c0.2,0,0.4-0.1,0.5-0.2c0.2-0.2,0.1-0.5-0.2-0.8l-2.8-1.8C261,75.2,260.6,75.3,260.5,75.6"/>
<path class="st1" d="M302,75.4c-0.3,0-0.5-0.1-0.6-0.1c0-0.1-0.1-0.1-0.1-0.1c-0.2-0.2-0.5-0.2-0.7,0c0,0.1-0.2,0-0.2,0.4
	c0.1,0.6,0.5,0.9,1.6,0.9l0,0c0.3,0,0.5-0.2,0.5-0.5C302.6,75.7,302.3,75.5,302,75.4"/>
<path class="st1" d="M299.4,71.6c-0.1,0.3,0.2,0.6,0.5,0.6h0.1c0.3,0,0.5-0.2,0.6-0.5v-0.2c0.4,0.1,0.8,0.2,1.3,0.2
	c0.3,0,0.5-0.2,0.5-0.5s-0.2-0.5-0.5-0.5c-1.5,0-3.1-1-3.1-1c-0.3-0.2-0.6-0.1-0.8,0.2c-0.2,0.2-0.1,0.6,0.2,0.8
	c0,0,0.5,0.3,1.2,0.6L299.4,71.6z"/>
<polygon class="st1" points="299.5,77.5 299.5,77.5 299.4,77.5 "/>
<path class="st1" d="M301.6,77.2c-0.8-0.1-1.4-0.5-1.4-0.5c-0.2-0.2-0.5-0.2-0.8,0.1c-0.2,0.2-0.2,0.5,0.1,0.8
	c0.1,0,0.8,0.8,2.1,0.8c0.3,0,0.5-0.2,0.5-0.5C302.2,77.5,301.9,77.2,301.6,77.2"/>
<path class="st1" d="M349.1,102.9c0.2,0,0.3-0.1,0.4-0.2l4.4-4.4c0.2-0.2,0.2-0.5,0-0.8c-0.2-0.2-0.5-0.2-0.8,0l-4.4,4.4
	c-0.2,0.2-0.2,0.5,0,0.8C348.9,102.8,348.9,102.9,349.1,102.9"/>
</svg>
