<svg width="146" height="79" viewBox="0 0 146 79" fill="none" xmlns="http://www.w3.org/2000/svg">
<path d="M146 62.0335C146 71.2663 139.578 77.6878 129.713 78.7478C129.009 78.8246 14.7902 79.0397 13.7123 78.9936C6.2125 78.6095 0 72.6951 0 64.937C0 57.179 5.50886 51.541 12.5297 50.9265C11.7063 48.4992 11.2723 45.9029 11.2723 43.1992C11.2723 30.0643 21.6463 19.4181 34.4454 19.4181C37.8435 19.4181 41.077 20.1709 43.9811 21.5382C46.7954 9.18676 57.5886 0 70.4775 0C83.3665 0 93.1118 8.32644 96.5099 19.7868C100.043 17.6514 104.145 16.4378 108.531 16.4378C121.689 16.4378 132.363 27.3758 132.363 40.8948C132.363 42.4618 132.213 43.998 131.943 45.4881C139.877 46.5942 146 53.5842 146 62.0489V62.0335Z" fill="url(#paint0_linear_432_227)"/>
<defs>
<linearGradient id="paint0_linear_432_227" x1="2.38019" y1="28.5127" x2="144.095" y2="64.7334" gradientUnits="userSpaceOnUse">
<stop stop-color="#8CCBFF"/>
<stop offset="0.02" stop-color="#91CCFF"/>
<stop offset="0.23" stop-color="#B7D8FF"/>
<stop offset="0.43" stop-color="#D5E1FF"/>
<stop offset="0.63" stop-color="#EAE8FF"/>
<stop offset="0.82" stop-color="#F7ECFF"/>
<stop offset="1" stop-color="#FCEEFF"/>
</linearGradient>
</defs>
</svg>