<svg width="100" height="100" viewBox="0 0 102 102" fill="none" xmlns="http://www.w3.org/2000/svg">
<path d="M63.3998 39.56L100.988 49.677C102.337 50.0402 102.337 51.9598 100.988 52.323L63.3998 62.44C62.9329 62.5697 62.5697 62.9329 62.44 63.3998L52.323 100.988C51.9598 102.337 50.0402 102.337 49.677 100.988L39.56 63.3998C39.4303 62.9329 39.0671 62.5697 38.6002 62.44L1.0117 52.323C-0.337233 51.9598 -0.337233 50.0402 1.0117 49.677L38.6002 39.56C39.0671 39.4303 39.4303 39.0671 39.56 38.6002L49.677 1.0117C50.0402 -0.337233 51.9598 -0.337233 52.323 1.0117L62.44 38.6002C62.5437 39.0671 62.9329 39.4303 63.3998 39.56Z" fill="url(#paint0_linear_432_228)"/>
<defs>
<linearGradient id="paint0_linear_432_228" x1="35" y1="75" x2="67.5" y2="31" gradientUnits="userSpaceOnUse">
<stop stop-color="#F9C155"/>
<stop offset="1" stop-color="#FFF051"/>
</linearGradient>
</defs>
</svg>